<?xml version="1.0" encoding="UTF-8"?>
<svg xmlns="http://www.w3.org/2000/svg" xmlns:xlink="http://www.w3.org/1999/xlink" width="375pt" height="374.999991pt" viewBox="0 0 375 374.999991" version="1.2">
<defs>
<clipPath id="clip1">
  <path d="M 65.246094 4.058594 L 309.746094 4.058594 L 309.746094 370.699219 L 65.246094 370.699219 Z M 65.246094 4.058594 "/>
</clipPath>
</defs>
<g id="surface1">
<g clip-path="url(#clip1)" clip-rule="nonzero">
<path style=" stroke:none;fill-rule:nonzero;fill:rgb(0%,0%,0%);fill-opacity:1;" d="M 285.542969 87.339844 C 283.546875 87.476562 282.296875 87.257812 281.441406 86.589844 C 281.421875 86.574219 281.40625 86.570312 281.386719 86.558594 C 281.339844 86.523438 281.300781 86.488281 281.25 86.457031 C 280.277344 85.917969 279.585938 84.894531 279.066406 83.230469 C 279.0625 83.226562 279.058594 83.21875 279.058594 83.210938 C 279.058594 83.207031 279.058594 83.203125 279.054688 83.199219 C 277.261719 77.808594 280.871094 71.300781 284.691406 64.40625 C 287.308594 59.683594 290.019531 54.796875 290.972656 50.066406 C 290.972656 50.058594 290.972656 50.050781 290.976562 50.046875 C 290.976562 50.03125 290.984375 50.023438 290.984375 50.015625 C 291.335938 47.933594 291.75 44.792969 291.507812 41.0625 C 292.4375 39.65625 293.378906 38.234375 294.347656 36.777344 C 295.707031 34.730469 297.105469 32.625 298.535156 30.457031 C 307.3125 45.773438 311.253906 57.097656 298.851562 76.628906 C 298.851562 76.628906 298.851562 76.632812 298.851562 76.636719 C 294.125 83.945312 288.886719 86.953125 285.542969 87.339844 Z M 284.105469 46.804688 C 281.457031 50.867188 278.921875 54.691406 276.546875 58.28125 L 273.21875 63.332031 L 266.214844 59.386719 C 265.613281 59.035156 265.003906 58.6875 264.390625 58.339844 C 263.671875 57.929688 262.945312 57.527344 262.246094 57.109375 C 265.347656 50.9375 268.335938 45.167969 271.386719 39.449219 C 274.453125 32.808594 278.132812 25.480469 282.027344 17.714844 L 283.574219 14.640625 L 299.300781 23.746094 C 298.667969 24.714844 298.039062 25.671875 297.421875 26.617188 C 297.386719 26.660156 297.359375 26.707031 297.332031 26.753906 C 295.433594 29.640625 293.589844 32.417969 291.8125 35.09375 C 290.867188 36.511719 289.957031 37.894531 289.050781 39.257812 C 288.761719 39.46875 288.554688 39.777344 288.472656 40.136719 C 286.957031 42.425781 285.492188 44.65625 284.105469 46.804688 Z M 273.738281 68.730469 C 273.441406 69.203125 272.808594 69.507812 272.132812 69.128906 L 270.136719 67.984375 C 270.042969 67.898438 269.949219 67.816406 269.835938 67.757812 L 265.023438 65.046875 L 257.957031 60.996094 C 257.519531 60.6875 257.101562 59.859375 257.445312 59.234375 C 257.613281 58.972656 257.941406 58.761719 258.304688 58.691406 C 258.386719 58.675781 258.464844 58.671875 258.53125 58.671875 C 258.726562 58.671875 258.890625 58.726562 259.058594 58.84375 L 264.5625 61.941406 C 265.113281 62.265625 265.660156 62.597656 266.207031 62.945312 L 272.90625 66.75 C 273.042969 66.828125 273.1875 66.875 273.335938 66.90625 C 273.738281 67.292969 274.050781 68.164062 273.738281 68.730469 Z M 193.914062 196.082031 L 189.273438 188.023438 L 259.917969 65.667969 L 263.535156 67.703125 L 266.988281 69.6875 Z M 283.628906 8.425781 C 284.164062 7.5625 284.972656 7.101562 285.824219 7.101562 C 286.230469 7.101562 286.648438 7.207031 287.046875 7.421875 L 303.789062 17.15625 C 303.804688 17.164062 303.820312 17.171875 303.832031 17.183594 C 304.59375 17.585938 304.894531 18.296875 305.007812 18.679688 C 305.195312 19.304688 305.152344 19.96875 304.933594 20.371094 C 304.253906 21.460938 303.105469 21.929688 302.027344 21.691406 C 300.027344 20.640625 298.152344 19.53125 296.246094 18.402344 C 295.175781 17.769531 294.097656 17.136719 292.960938 16.488281 C 291.050781 15.4375 289.148438 14.332031 287.210938 13.207031 L 284.148438 11.441406 C 283.773438 11.164062 283.480469 10.734375 283.34375 10.226562 C 283.179688 9.609375 283.269531 8.96875 283.628906 8.425781 Z M 253.664062 321.765625 L 188.894531 209.765625 C 188.871094 209.714844 188.859375 209.664062 188.828125 209.617188 L 184.828125 202.738281 L 107.914062 69.734375 L 111.316406 67.757812 L 115.101562 65.660156 L 260.589844 317.761719 Z M 277.992188 311.222656 C 278.363281 311.035156 278.800781 310.929688 279.230469 310.929688 C 279.984375 310.929688 280.730469 311.25 281.179688 312.011719 C 281.40625 312.378906 281.445312 312.953125 281.300781 313.496094 C 281.144531 314.066406 280.8125 314.527344 280.355469 314.777344 L 264.285156 324.023438 L 255.871094 328.761719 C 255.707031 328.851562 255.566406 328.972656 255.453125 329.109375 L 241.183594 337.320312 C 240.746094 337.601562 240.195312 337.683594 239.683594 337.539062 C 239.15625 337.390625 238.734375 337.046875 238.375 336.371094 C 238.132812 336.019531 238.058594 335.496094 238.175781 334.976562 C 238.3125 334.417969 238.644531 333.9375 239.074219 333.710938 C 239.082031 333.703125 239.097656 333.695312 239.105469 333.6875 L 253.796875 325.199219 C 253.820312 325.191406 253.84375 325.1875 253.867188 325.171875 L 263.457031 319.695312 C 263.582031 319.625 263.691406 319.527344 263.792969 319.425781 Z M 265.78125 326.683594 L 272.386719 338.226562 L 280.957031 361.253906 L 265.390625 342.417969 L 258.734375 330.734375 L 265.589844 326.789062 Z M 121.347656 321.789062 L 121.027344 321.605469 L 114.300781 317.734375 L 180.96875 202.160156 L 182.640625 205.03125 L 185.746094 210.398438 Z M 136.578125 336.476562 C 136.265625 337.011719 135.796875 337.390625 135.265625 337.539062 C 134.738281 337.683594 134.171875 337.601562 133.632812 337.292969 L 119.355469 329.042969 C 119.253906 328.9375 119.140625 328.835938 119.003906 328.761719 L 109.4375 323.296875 C 109.394531 323.269531 109.34375 323.25 109.296875 323.230469 L 94.589844 314.734375 C 94.109375 314.492188 93.746094 314.03125 93.597656 313.457031 C 93.472656 312.960938 93.542969 312.449219 93.90625 311.910156 C 94.160156 311.382812 94.628906 311.144531 94.984375 311.035156 C 95.21875 310.960938 95.476562 310.925781 95.722656 310.925781 C 96.113281 310.925781 96.5 311.015625 96.800781 311.179688 L 111.019531 319.363281 C 111.132812 319.496094 111.269531 319.613281 111.425781 319.699219 L 119.257812 324.101562 L 135.902344 333.679688 C 136.695312 334.164062 137.066406 335.660156 136.578125 336.476562 Z M 109.628906 342.199219 L 93.988281 361.160156 L 102.535156 338.449219 L 109.230469 326.703125 L 112.546875 328.621094 L 112.628906 328.664062 C 112.628906 328.667969 112.628906 328.667969 112.628906 328.667969 L 116.160156 330.707031 Z M 101.175781 68.800781 C 100.820312 68.15625 101.164062 67.230469 101.695312 66.886719 L 101.839844 66.804688 C 101.867188 66.789062 101.898438 66.785156 101.925781 66.769531 C 103.519531 65.925781 105.113281 65 106.65625 64.109375 L 108.695312 62.929688 C 109.570312 62.40625 110.441406 61.90625 111.304688 61.410156 C 111.363281 61.378906 111.417969 61.347656 111.472656 61.3125 L 115.871094 58.804688 C 116.09375 58.671875 116.429688 58.628906 116.761719 58.707031 C 117.113281 58.792969 117.421875 58.988281 117.542969 59.175781 C 117.890625 59.8125 117.546875 60.601562 117.039062 60.917969 L 109.902344 65.0625 L 105.042969 67.75 C 104.855469 67.851562 104.699219 67.992188 104.574219 68.152344 L 102.910156 69.121094 C 102.164062 69.53125 101.453125 69.152344 101.175781 68.800781 Z M 90.921875 46.8125 C 88.492188 43.039062 85.851562 39.0625 83.046875 34.847656 C 80.71875 31.328125 78.265625 27.636719 75.730469 23.753906 L 86.914062 17.203125 C 88.390625 16.359375 89.90625 15.492188 91.441406 14.617188 C 96.007812 23.761719 100.03125 31.960938 103.664062 39.5 L 103.933594 40.035156 C 107.085938 46.183594 109.980469 51.835938 112.628906 57.113281 C 111.699219 57.675781 110.75 58.21875 109.789062 58.769531 C 109.707031 58.816406 109.621094 58.867188 109.539062 58.914062 L 101.6875 63.386719 L 100.371094 61.386719 C 97.433594 56.925781 94.234375 52.074219 90.921875 46.8125 Z M 84.050781 50.066406 C 84.054688 50.078125 84.054688 50.085938 84.058594 50.089844 C 84.058594 50.09375 84.058594 50.097656 84.058594 50.097656 C 85.019531 54.820312 87.722656 59.691406 90.332031 64.40625 C 94.15625 71.300781 97.761719 77.808594 95.96875 83.199219 C 95.964844 83.207031 95.964844 83.214844 95.960938 83.226562 C 95.960938 83.230469 95.957031 83.230469 95.957031 83.238281 C 95.480469 84.78125 94.695312 85.867188 93.625 86.457031 C 93.578125 86.484375 93.535156 86.519531 93.492188 86.550781 C 93.472656 86.566406 93.449219 86.574219 93.429688 86.589844 C 92.578125 87.257812 91.335938 87.472656 89.332031 87.339844 C 86.070312 86.960938 80.90625 83.957031 76.167969 76.617188 C 76.164062 76.613281 76.164062 76.613281 76.160156 76.609375 C 64.148438 57.6875 66.953125 47.125 76.414062 30.34375 C 77.816406 32.460938 79.183594 34.523438 80.515625 36.527344 C 81.5 38.011719 82.453125 39.449219 83.394531 40.875 C 83.257812 44.496094 83.464844 47.433594 84.050781 50.066406 Z M 70.082031 20.347656 C 69.800781 19.910156 69.726562 19.289062 69.875 18.695312 C 70.050781 18.039062 70.46875 17.488281 71.042969 17.183594 C 71.050781 17.171875 71.066406 17.164062 71.082031 17.15625 L 87.785156 7.445312 C 88.199219 7.222656 88.644531 7.105469 89.082031 7.105469 C 89.332031 7.105469 89.578125 7.144531 89.8125 7.21875 C 90.234375 7.339844 90.820312 7.640625 91.269531 8.472656 C 91.601562 8.96875 91.695312 9.609375 91.527344 10.226562 C 91.363281 10.839844 90.976562 11.351562 90.402344 11.640625 L 85.6875 14.402344 C 84.441406 15.117188 83.210938 15.820312 82.042969 16.496094 C 80.945312 17.125 79.890625 17.75 78.839844 18.371094 C 76.9375 19.492188 75.066406 20.597656 73.085938 21.640625 C 72.007812 21.894531 70.734375 21.550781 70.082031 20.347656 Z M 300.410156 27.605469 C 301.027344 26.667969 301.652344 25.710938 302.277344 24.75 C 302.375 24.753906 302.472656 24.765625 302.574219 24.765625 C 304.539062 24.765625 306.417969 23.746094 307.558594 21.898438 C 308.210938 20.714844 308.347656 19.230469 307.925781 17.820312 C 307.503906 16.375 306.566406 15.207031 305.296875 14.519531 L 288.535156 4.761719 C 285.832031 3.300781 282.667969 4.183594 281.0625 6.789062 C 280.253906 8.003906 280.015625 9.539062 280.40625 11.003906 C 280.558594 11.613281 280.820312 12.167969 281.152344 12.664062 L 279.304688 16.351562 C 275.402344 24.136719 271.710938 31.488281 268.664062 38.09375 C 265.632812 43.761719 262.632812 49.5625 259.519531 55.757812 C 258.957031 55.613281 258.34375 55.582031 257.710938 55.710938 C 256.511719 55.949219 255.476562 56.648438 254.828125 57.691406 C 253.625 59.84375 254.574219 62.320312 256.308594 63.554688 L 257.300781 64.121094 L 187.496094 185.019531 L 117.6875 64.054688 L 118.605469 63.519531 C 120.59375 62.292969 121.304688 59.671875 120.15625 57.632812 C 119.574219 56.695312 118.589844 56.007812 117.445312 55.738281 C 116.742188 55.578125 116.023438 55.605469 115.363281 55.773438 C 112.703125 50.480469 109.800781 44.8125 106.644531 38.648438 L 106.390625 38.148438 C 102.675781 30.433594 98.527344 21.980469 93.804688 12.535156 C 94.097656 12.074219 94.324219 11.558594 94.46875 11.003906 C 94.855469 9.539062 94.617188 8.003906 93.882812 6.914062 C 93.199219 5.640625 92.0625 4.710938 90.6875 4.304688 C 89.25 3.871094 87.703125 4.023438 86.296875 4.792969 L 69.574219 14.519531 C 68.269531 15.226562 67.3125 16.464844 66.929688 17.933594 C 66.5625 19.351562 66.773438 20.832031 67.457031 21.890625 C 68.4375 23.703125 70.335938 24.75 72.382812 24.75 C 72.5 24.75 72.617188 24.738281 72.734375 24.730469 C 73.339844 25.660156 73.941406 26.582031 74.539062 27.492188 C 65.015625 44.101562 59.96875 56.789062 73.597656 78.261719 C 73.601562 78.265625 73.601562 78.269531 73.605469 78.273438 C 78.136719 85.273438 83.898438 89.796875 89.023438 90.363281 C 89.03125 90.363281 89.042969 90.363281 89.054688 90.363281 C 89.0625 90.367188 89.066406 90.367188 89.074219 90.367188 C 89.496094 90.40625 89.957031 90.421875 90.425781 90.421875 C 91.976562 90.421875 93.691406 90.15625 95.148438 89.089844 C 96.871094 88.121094 98.148438 86.421875 98.847656 84.175781 C 98.847656 84.171875 98.851562 84.167969 98.855469 84.164062 C 98.855469 84.152344 98.855469 84.140625 98.859375 84.132812 C 98.863281 84.128906 98.863281 84.128906 98.863281 84.125 C 98.863281 84.125 98.863281 84.121094 98.863281 84.117188 C 101.050781 77.46875 96.957031 70.082031 92.996094 62.933594 C 90.492188 58.40625 87.898438 53.734375 87.027344 49.457031 C 87.027344 49.453125 87.027344 49.449219 87.027344 49.449219 C 87.027344 49.441406 87.027344 49.4375 87.023438 49.429688 C 86.757812 48.234375 86.578125 46.957031 86.484375 45.5625 C 87.121094 46.535156 87.746094 47.496094 88.355469 48.441406 C 91.664062 53.710938 94.878906 58.582031 97.832031 63.058594 L 99.175781 65.105469 C 97.945312 66.507812 97.621094 68.65625 98.628906 70.449219 C 99.550781 71.679688 100.875 72.335938 102.25 72.335938 C 102.980469 72.335938 103.71875 72.152344 104.417969 71.765625 L 105.285156 71.261719 L 179.21875 199.109375 L 111.664062 316.21875 L 98.292969 308.523438 C 97.039062 307.847656 95.457031 307.695312 94.070312 308.136719 C 92.78125 308.542969 91.753906 309.394531 91.292969 310.359375 C 90.535156 311.429688 90.300781 312.835938 90.652344 314.210938 C 91.011719 315.636719 91.953125 316.820312 93.148438 317.410156 L 106.597656 325.183594 L 99.785156 337.164062 L 87.914062 368.644531 C 87.652344 369.335938 87.9375 370.121094 88.578125 370.496094 C 88.816406 370.632812 89.078125 370.699219 89.339844 370.699219 C 89.78125 370.699219 90.214844 370.511719 90.515625 370.148438 L 112.125 343.925781 L 118.789062 332.226562 L 132.109375 339.921875 C 132.960938 340.421875 133.875 340.65625 134.761719 340.65625 C 136.527344 340.65625 138.210938 339.722656 139.199219 338.023438 C 140.539062 335.78125 139.695312 332.402344 137.460938 331.066406 C 137.453125 331.0625 137.445312 331.054688 137.4375 331.050781 L 123.984375 323.308594 L 187.503906 213.4375 L 251.027344 323.285156 L 237.597656 331.046875 C 236.414062 331.703125 235.546875 332.875 235.214844 334.28125 C 234.894531 335.648438 235.136719 337.046875 235.765625 337.921875 C 236.394531 339.167969 237.523438 340.101562 238.871094 340.472656 C 239.308594 340.59375 239.753906 340.652344 240.203125 340.652344 C 241.117188 340.652344 242.015625 340.398438 242.757812 339.929688 L 256.097656 332.253906 L 262.894531 344.140625 L 284.355469 370.148438 C 284.65625 370.511719 285.089844 370.699219 285.53125 370.699219 C 285.792969 370.699219 286.054688 370.632812 286.292969 370.496094 C 286.9375 370.125 287.214844 369.34375 286.957031 368.648438 L 275.132812 336.941406 L 268.414062 325.160156 L 281.84375 317.429688 C 282.992188 316.804688 283.863281 315.660156 284.234375 314.292969 C 284.609375 312.9375 284.445312 311.535156 283.800781 310.460938 C 282.371094 308.011719 279.273438 307.175781 276.546875 308.542969 L 263.222656 316.242188 L 195.648438 199.144531 L 269.625 71.199219 L 270.632812 71.78125 C 271.308594 72.152344 272.035156 72.335938 272.742188 72.335938 C 274.15625 72.335938 275.527344 71.609375 276.359375 70.277344 C 277.34375 68.503906 276.855469 66.371094 275.742188 65.039062 L 279.09375 59.960938 C 281.46875 56.363281 284.007812 52.535156 286.660156 48.457031 C 287.246094 47.546875 287.84375 46.628906 288.457031 45.695312 C 288.367188 46.894531 288.214844 48.144531 287.988281 49.484375 C 287.113281 53.75 284.527344 58.417969 282.027344 62.933594 C 278.070312 70.078125 273.980469 77.457031 276.15625 84.101562 C 276.160156 84.113281 276.160156 84.121094 276.160156 84.132812 C 276.164062 84.140625 276.164062 84.148438 276.167969 84.15625 C 276.167969 84.160156 276.171875 84.160156 276.171875 84.164062 C 276.914062 86.546875 278.082031 88.15625 279.71875 89.085938 C 281.179688 90.15625 282.890625 90.421875 284.445312 90.421875 C 284.917969 90.421875 285.371094 90.40625 285.800781 90.367188 C 285.804688 90.367188 285.808594 90.367188 285.816406 90.363281 C 285.828125 90.363281 285.835938 90.363281 285.851562 90.363281 C 291.003906 89.789062 296.964844 85.160156 301.414062 78.273438 C 301.417969 78.269531 301.417969 78.265625 301.421875 78.261719 C 315.0625 56.785156 310.003906 44.117188 300.410156 27.605469 "/>
</g>
</g>
</svg>
