<?xml version="1.0" encoding="UTF-8"?>
<svg xmlns="http://www.w3.org/2000/svg" xmlns:xlink="http://www.w3.org/1999/xlink" width="375pt" height="374.999991pt" viewBox="0 0 375 374.999991" version="1.2">
<defs>
<clipPath id="clip1">
  <path d="M 3.839844 72.710938 L 371.339844 72.710938 L 371.339844 302.140625 L 3.839844 302.140625 Z M 3.839844 72.710938 "/>
</clipPath>
<clipPath id="clip2">
  <path d="M 157 187 L 371.339844 187 L 371.339844 302.140625 L 157 302.140625 Z M 157 187 "/>
</clipPath>
<clipPath id="clip3">
  <path d="M 49 72.710938 L 341 72.710938 L 341 257 L 49 257 Z M 49 72.710938 "/>
</clipPath>
</defs>
<g id="surface1">
<g clip-path="url(#clip1)" clip-rule="nonzero">
<path style=" stroke:none;fill-rule:nonzero;fill:rgb(0%,0%,0%);fill-opacity:1;" d="M 164.703125 302.140625 C 22.957031 302.140625 3.839844 278.9375 3.839844 256.253906 C 3.839844 241.496094 23.832031 213.949219 51.945312 210.691406 L 88.542969 108.378906 C 89.292969 106.558594 103.941406 72.710938 149.382812 72.710938 C 169.957031 72.710938 178.199219 74.652344 186.164062 76.535156 C 194.148438 78.417969 202.390625 80.359375 225.984375 80.359375 C 230.210938 80.359375 233.644531 83.785156 233.644531 88.007812 C 233.644531 92.226562 230.210938 95.652344 225.984375 95.652344 C 200.613281 95.652344 191.480469 93.496094 182.640625 91.417969 C 175.210938 89.660156 168.179688 88.007812 149.382812 88.007812 C 114.039062 88.007812 102.945312 113.625 102.824219 113.886719 L 64.660156 220.585938 C 63.585938 223.628906 60.691406 225.664062 57.460938 225.664062 C 33.988281 225.664062 19.160156 250.136719 19.160156 256.253906 C 19.160156 282.867188 110.34375 286.847656 164.703125 286.847656 C 298.035156 286.847656 342.769531 250.75 349.511719 244.476562 C 351.164062 239.382812 356.207031 222.160156 356.207031 202.722656 C 356.207031 179.777344 355.195312 179.777344 348.546875 179.777344 C 337.699219 179.777344 325.183594 184.734375 321.273438 186.644531 C 317.460938 188.496094 312.894531 186.9375 311.027344 183.144531 C 309.171875 179.351562 310.734375 174.777344 314.535156 172.910156 C 315.238281 172.574219 331.953125 164.484375 348.546875 164.484375 C 371.527344 164.484375 371.527344 181.355469 371.527344 202.722656 C 371.527344 228.632812 363.742188 250.304688 363.40625 251.222656 C 363.085938 252.09375 362.625 252.890625 362.011719 253.59375 C 360.296875 255.582031 318.363281 302.140625 164.703125 302.140625 Z M 164.703125 302.140625 "/>
</g>
<g clip-path="url(#clip2)" clip-rule="nonzero">
<path style=" stroke:none;fill-rule:nonzero;fill:rgb(0%,0%,0%);fill-opacity:1;" d="M 164.703125 302.140625 C 160.472656 302.140625 157.042969 298.714844 157.042969 294.492188 C 157.042969 290.273438 160.472656 286.847656 164.703125 286.847656 C 248.183594 286.847656 353.675781 210.0625 356.21875 194.875 C 356.21875 190.652344 359.636719 187.320312 363.878906 187.320312 C 368.109375 187.320312 371.539062 190.835938 371.539062 195.058594 C 371.527344 222.988281 251.90625 302.140625 164.703125 302.140625 Z M 164.703125 302.140625 "/>
</g>
<path style=" stroke:none;fill-rule:nonzero;fill:rgb(0%,0%,0%);fill-opacity:1;" d="M 172.363281 218.015625 C 93.371094 218.015625 67.753906 185.804688 66.699219 184.429688 C 64.125 181.0625 64.765625 176.277344 68.121094 173.707031 C 71.507812 171.152344 76.289062 171.777344 78.863281 175.128906 C 79.03125 175.34375 101.78125 202.722656 172.363281 202.722656 C 246.28125 202.722656 314.808594 180.390625 315.5 180.160156 C 319.511719 178.859375 323.847656 181.003906 325.183594 185.007812 C 326.515625 189.015625 324.339844 193.34375 320.324219 194.675781 C 317.429688 195.640625 248.839844 218.015625 172.363281 218.015625 Z M 172.363281 218.015625 "/>
<g clip-path="url(#clip3)" clip-rule="nonzero">
<path style=" stroke:none;fill-rule:nonzero;fill:rgb(0%,0%,0%);fill-opacity:1;" d="M 195.34375 256.253906 C 72.671875 256.253906 52.585938 225.144531 50.703125 221.597656 C 48.710938 217.863281 50.136719 213.246094 53.875 211.257812 C 57.519531 209.3125 62.007812 210.613281 64.078125 214.148438 C 64.8125 215.1875 84.605469 240.960938 195.34375 240.960938 C 284.996094 240.960938 315.515625 228.21875 324.246094 223.019531 C 317.492188 203.105469 293.4375 132.042969 287.617188 113.199219 C 280.984375 91.816406 275.742188 88.007812 264.285156 88.007812 C 241.332031 88.007812 223.898438 96.617188 207.046875 104.953125 C 192.859375 111.972656 179.453125 118.597656 164.703125 118.597656 C 135.546875 118.597656 127.871094 111.132812 126.554688 104.863281 C 125.695312 100.730469 128.363281 96.679688 132.5 95.808594 C 135.945312 95.179688 139.253906 96.785156 140.800781 99.675781 C 141.980469 100.457031 147.464844 103.300781 164.703125 103.300781 C 175.871094 103.300781 187.175781 97.71875 200.246094 91.25 C 217.832031 82.5625 237.765625 72.710938 264.285156 72.710938 C 286.726562 72.710938 295.199219 85.910156 302.246094 108.703125 C 308.851562 130.023438 340.179688 222.285156 340.488281 223.21875 C 341.269531 225.542969 340.898438 228.097656 339.492188 230.101562 C 336.378906 234.460938 314.855469 256.253906 195.34375 256.253906 Z M 195.34375 256.253906 "/>
</g>
<path style=" stroke:none;fill-rule:nonzero;fill:rgb(0%,0%,0%);fill-opacity:1;" d="M 241.304688 248.605469 C 237.074219 248.605469 233.644531 245.179688 233.644531 240.960938 L 233.644531 210.367188 C 233.644531 206.148438 237.074219 202.722656 241.304688 202.722656 C 245.53125 202.722656 248.964844 206.148438 248.964844 210.367188 L 248.964844 240.960938 C 248.964844 245.179688 245.53125 248.605469 241.304688 248.605469 Z M 241.304688 248.605469 "/>
<path style=" stroke:none;fill-rule:nonzero;fill:rgb(0%,0%,0%);fill-opacity:1;" d="M 287.265625 248.605469 C 283.035156 248.605469 279.605469 245.179688 279.605469 240.960938 L 279.605469 202.722656 C 279.605469 198.5 283.035156 195.074219 287.265625 195.074219 C 291.492188 195.074219 294.925781 198.5 294.925781 202.722656 L 294.925781 240.960938 C 294.925781 245.179688 291.492188 248.605469 287.265625 248.605469 Z M 287.265625 248.605469 "/>
</g>
</svg>
