<?xml version="1.0" encoding="UTF-8"?>
<svg xmlns="http://www.w3.org/2000/svg" xmlns:xlink="http://www.w3.org/1999/xlink" width="375pt" height="374.999991pt" viewBox="0 0 375 374.999991" version="1.2">
<defs>
<clipPath id="clip1">
  <path d="M 89.429688 262.160156 L 287.433594 262.160156 L 287.433594 364.871094 L 89.429688 364.871094 Z M 89.429688 262.160156 "/>
</clipPath>
<clipPath id="clip2">
  <path d="M 78.117188 9.890625 L 297.097656 9.890625 L 297.097656 179.953125 L 78.117188 179.953125 Z M 78.117188 9.890625 "/>
</clipPath>
</defs>
<g id="surface1">
<g clip-path="url(#clip1)" clip-rule="nonzero">
<path style=" stroke:none;fill-rule:nonzero;fill:rgb(0%,0%,0%);fill-opacity:1;" d="M 286.953125 270.945312 C 286.117188 265.890625 280.589844 263.09375 276 265.375 C 262.339844 272.164062 231.960938 284.09375 187.191406 284.0625 C 149.675781 284.03125 116.777344 270.691406 100.898438 262.988281 C 96.039062 260.628906 90.328125 263.902344 89.910156 269.285156 C 89.648438 272.671875 91.652344 275.816406 94.828125 277.027344 C 104.03125 280.535156 123.164062 288.929688 137.152344 302.5625 C 158.660156 323.523438 178.304688 348.773438 181.273438 358.457031 C 181.285156 358.5 181.296875 358.546875 181.3125 358.589844 C 182.449219 362.316406 185.882812 364.871094 189.785156 364.871094 L 194.351562 364.871094 C 197.828125 364.871094 200.988281 362.84375 202.417969 359.675781 C 202.789062 358.851562 203.234375 357.90625 203.769531 356.820312 C 207.078125 350.113281 214.425781 327.160156 236.378906 306.066406 C 236.378906 306.066406 256.675781 290.765625 282.417969 280.648438 C 285.722656 279.351562 287.695312 275.949219 287.183594 272.441406 C 287.113281 271.957031 287.035156 271.457031 286.953125 270.945312 "/>
</g>
<g clip-path="url(#clip2)" clip-rule="nonzero">
<path style=" stroke:none;fill-rule:nonzero;fill:rgb(0%,0%,0%);fill-opacity:1;" d="M 144.398438 16.8125 C 137.855469 31.652344 121.589844 71.023438 121.710938 95.675781 C 121.710938 95.675781 132.21875 114.453125 147.292969 124.117188 C 156.894531 130.277344 162.742188 137.535156 165.714844 141.988281 C 167.472656 144.613281 170.414062 146.199219 173.574219 146.277344 L 203.855469 147.023438 C 207.753906 147.117188 211.367188 144.90625 212.972656 141.359375 C 215 136.886719 218.851562 130.34375 225.9375 123.566406 C 238.691406 111.359375 244.628906 92.09375 245.191406 89.394531 C 245.660156 87.148438 230.058594 33.554688 224.777344 15.515625 C 223.933594 12.632812 226.171875 9.777344 229.175781 9.894531 L 230.699219 9.957031 C 232.519531 10.027344 234.105469 11.210938 234.691406 12.929688 L 257.917969 81.160156 C 257.917969 81.160156 266.085938 96.550781 276.617188 106.039062 C 282.476562 111.3125 292.160156 122.90625 295.972656 137.09375 C 301.328125 157.023438 286.882812 176.75 266.273438 178.3125 C 250.824219 179.480469 230.15625 177.691406 213.09375 164.449219 C 211.460938 163.183594 209.480469 162.429688 207.410156 162.351562 L 172.144531 160.976562 C 170.503906 160.910156 168.875 161.257812 167.402344 161.992188 C 159.796875 165.777344 134.433594 177.964844 120.582031 179.335938 C 118.148438 179.578125 115.710938 179.761719 113.328125 179.898438 C 86.613281 181.417969 68.886719 152.148438 83.210938 129.582031 C 83.453125 129.203125 83.695312 128.824219 83.953125 128.449219 C 83.953125 128.449219 103.105469 105.074219 108.214844 90.757812 L 111.117188 84.589844 C 111.117188 84.589844 130.949219 28.988281 136.203125 13.621094 C 136.832031 11.785156 138.589844 10.582031 140.53125 10.65625 C 143.640625 10.769531 145.652344 13.972656 144.398438 16.8125 "/>
</g>
</g>
</svg>
