<?xml version="1.0" encoding="UTF-8"?>
<svg xmlns="http://www.w3.org/2000/svg" xmlns:xlink="http://www.w3.org/1999/xlink" width="375pt" height="374.999991pt" viewBox="0 0 375 374.999991" version="1.2">
<defs>
<clipPath id="clip1">
  <path d="M 52.359375 11.4375 L 322.328125 11.4375 L 322.328125 363.90625 L 52.359375 363.90625 Z M 52.359375 11.4375 "/>
</clipPath>
</defs>
<g id="surface1">
<g clip-path="url(#clip1)" clip-rule="nonzero">
<path style=" stroke:none;fill-rule:nonzero;fill:rgb(6.269836%,5.879211%,5.099487%);fill-opacity:1;" d="M 318.90625 102.996094 C 318.460938 129.246094 316.816406 155.964844 315.230469 181.796875 L 314.292969 198.054688 C 312.945312 222.414062 311.550781 247.601562 311.214844 272.390625 C 310.878906 296.84375 311.675781 323.792969 313.710938 357.167969 C 313.746094 358.066406 313.421875 358.914062 312.804688 359.550781 C 312.195312 360.183594 311.371094 360.535156 310.488281 360.535156 L 77.773438 360.535156 C 75.738281 360.535156 73.675781 358.816406 73.28125 356.824219 C 67.640625 324.359375 65.171875 297.546875 65.515625 272.429688 C 65.707031 244.257812 68.246094 215.589844 70.699219 187.871094 C 71.242188 181.75 71.808594 175.628906 72.371094 169.507812 C 74.378906 147.75 76.457031 125.25 77.433594 103.097656 C 78.140625 87.210938 78.105469 70.71875 77.304688 52.636719 C 77.253906 51.523438 77.195312 50.390625 77.140625 49.265625 C 77.109375 48.566406 77.078125 47.875 77.042969 47.167969 C 76.5625 37.960938 75.894531 28.328125 75.027344 18.152344 C 74.929688 17.222656 75.195312 16.328125 75.757812 15.707031 C 76.289062 15.117188 77.015625 14.808594 77.871094 14.808594 L 78.601562 14.808594 C 81.832031 63.980469 80.792969 117.710938 75.328125 183.726562 C 70.070312 247.285156 70.605469 303.28125 76.972656 354.910156 C 77.074219 355.753906 77.789062 356.386719 78.640625 356.386719 L 307.507812 356.386719 C 307.972656 356.386719 308.414062 356.199219 308.730469 355.863281 C 309.046875 355.527344 309.214844 355.074219 309.1875 354.609375 C 306.261719 302.132812 307.144531 246.320312 311.882812 183.988281 C 316.320312 122.851562 315.714844 67.492188 310.050781 14.808594 L 310.488281 14.808594 C 312.449219 14.808594 314.488281 16.605469 314.683594 18.507812 C 317.855469 47.609375 319.273438 76.039062 318.90625 102.996094 Z M 64.105469 194.707031 C 60.1875 194.761719 57.351562 194.578125 56.464844 193.671875 C 55.644531 192.84375 55.6875 190.484375 55.757812 186.90625 L 55.800781 184.183594 C 56.789062 123.726562 62.023438 89.484375 72.679688 31.277344 C 72.789062 32.792969 72.894531 34.300781 72.992188 35.792969 C 73 35.914062 73.011719 36.035156 73.015625 36.152344 C 73.136719 37.960938 73.25 39.753906 73.355469 41.53125 C 73.378906 41.96875 73.40625 42.398438 73.429688 42.835938 C 73.503906 44.15625 73.578125 45.472656 73.648438 46.777344 C 73.675781 47.34375 73.703125 47.90625 73.734375 48.46875 C 73.792969 49.636719 73.847656 50.800781 73.902344 51.957031 C 73.925781 52.550781 73.953125 53.140625 73.980469 53.730469 C 74.027344 54.859375 74.074219 55.980469 74.117188 57.101562 C 74.136719 57.675781 74.160156 58.25 74.179688 58.820312 C 74.21875 59.984375 74.257812 61.136719 74.292969 62.289062 C 74.308594 62.789062 74.324219 63.292969 74.339844 63.789062 C 74.375 65.152344 74.410156 66.507812 74.4375 67.851562 C 74.441406 68.121094 74.449219 68.398438 74.457031 68.671875 C 74.488281 70.320312 74.511719 71.957031 74.53125 73.582031 C 74.535156 73.773438 74.535156 73.964844 74.539062 74.15625 C 74.554688 75.546875 74.5625 76.933594 74.566406 78.3125 C 74.566406 78.785156 74.566406 79.261719 74.566406 79.734375 C 74.566406 80.828125 74.566406 81.914062 74.558594 82.996094 C 74.558594 83.542969 74.554688 84.089844 74.546875 84.640625 C 74.539062 85.644531 74.527344 86.648438 74.511719 87.652344 C 74.507812 88.214844 74.496094 88.78125 74.488281 89.34375 C 74.46875 90.339844 74.449219 91.328125 74.425781 92.316406 C 74.414062 92.855469 74.402344 93.402344 74.386719 93.941406 C 74.359375 94.996094 74.328125 96.042969 74.292969 97.089844 C 74.28125 97.550781 74.265625 98.015625 74.25 98.472656 C 74.199219 99.96875 74.140625 101.464844 74.074219 102.949219 C 73.097656 125.019531 71.027344 147.476562 69.019531 169.199219 C 68.453125 175.324219 67.890625 181.445312 67.347656 187.566406 L 66.710938 194.644531 Z M 98.800781 14.808594 C 102.125 64.113281 101.230469 117.847656 96.003906 183.726562 C 90.808594 246.515625 91.15625 301.910156 97.050781 353.015625 L 80.132812 353.015625 C 73.964844 302.03125 73.492188 246.726562 78.679688 184.007812 C 84.148438 117.914062 85.199219 64.089844 81.980469 14.808594 Z M 127.085938 14.808594 C 130.820312 65.164062 130.109375 118.890625 124.851562 183.730469 C 119.804688 246.039062 119.988281 301.445312 125.425781 353.015625 L 100.429688 353.015625 C 94.515625 302.027344 94.167969 246.722656 99.355469 184 C 104.59375 118.046875 105.492188 64.21875 102.175781 14.808594 Z M 128.820312 353.015625 C 123.367188 301.550781 123.160156 246.25 128.207031 184 C 133.46875 119.097656 134.183594 65.269531 130.457031 14.808594 L 151.898438 14.808594 C 155.898438 65.3125 155.359375 120.585938 150.242188 183.730469 C 145.261719 246.460938 145.304688 301.855469 150.355469 353.015625 Z M 180.183594 14.808594 C 184.445312 65.445312 184.089844 120.722656 179.085938 183.734375 C 174.21875 246.433594 174.097656 301.828125 178.730469 353.015625 L 153.726562 353.015625 C 148.664062 301.96875 148.621094 246.65625 153.597656 184 C 158.71875 120.792969 159.269531 65.421875 155.277344 14.808594 Z M 182.121094 353.015625 C 177.476562 301.933594 177.578125 246.628906 182.441406 184 C 187.449219 120.921875 187.8125 65.554688 183.558594 14.808594 L 205 14.808594 C 209.605469 65.441406 209.464844 120.722656 204.570312 183.734375 C 199.683594 246.6875 199.382812 302.085938 203.652344 353.015625 Z M 233.285156 14.808594 C 238.195312 65.925781 238.269531 121.203125 233.519531 183.734375 C 228.683594 246 228.222656 301.398438 232.128906 353.015625 L 207.023438 353.015625 C 202.75 302.191406 203.042969 246.882812 207.925781 183.996094 C 212.824219 120.917969 212.976562 65.550781 208.382812 14.808594 Z M 235.511719 353.015625 C 231.597656 301.496094 232.042969 246.191406 236.875 183.992188 C 241.625 121.394531 241.554688 66.03125 236.65625 14.808594 L 258.285156 14.808594 C 263.410156 66.386719 263.621094 121.664062 258.902344 183.738281 C 254.226562 246.660156 253.625 302.054688 257.054688 353.015625 Z M 286.570312 14.808594 C 292.007812 66.835938 292.425781 122.117188 287.847656 183.738281 C 283.152344 245.5625 282.359375 300.964844 285.433594 353.015625 L 260.425781 353.015625 C 256.992188 302.152344 257.589844 246.839844 262.261719 183.992188 C 266.984375 121.859375 266.789062 66.492188 261.675781 14.808594 Z M 305.730469 353.015625 L 288.808594 353.015625 C 285.730469 301.054688 286.511719 245.75 291.207031 183.992188 C 295.785156 122.300781 295.371094 66.9375 289.945312 14.808594 L 306.667969 14.808594 C 312.351562 67.394531 312.960938 122.675781 308.527344 183.738281 C 303.832031 245.511719 302.917969 300.910156 305.730469 353.015625 Z M 318.03125 18.148438 C 317.652344 14.511719 314.199219 11.4375 310.488281 11.4375 L 77.871094 11.4375 C 76.0625 11.4375 74.425781 12.148438 73.261719 13.445312 C 72.121094 14.71875 71.546875 16.449219 71.660156 18.210938 C 59.425781 84.441406 53.496094 119.21875 52.4375 184.136719 L 52.394531 186.84375 C 52.304688 191.433594 52.253906 194.203125 54.070312 196.046875 C 55.714844 197.714844 58.476562 198.082031 63.226562 198.082031 C 63.53125 198.082031 63.839844 198.082031 64.160156 198.078125 L 66.425781 198.023438 C 64.289062 222.53125 62.316406 247.632812 62.148438 272.390625 C 61.804688 297.714844 64.285156 324.726562 69.972656 357.445312 C 70.691406 361.066406 74.121094 363.90625 77.773438 363.90625 L 310.488281 363.90625 C 312.292969 363.90625 313.976562 363.191406 315.226562 361.894531 C 316.480469 360.59375 317.140625 358.871094 317.074219 357.007812 C 315.039062 323.675781 314.246094 296.800781 314.578125 272.4375 C 314.914062 247.71875 316.308594 222.566406 317.65625 198.242188 L 318.585938 182.003906 C 320.179688 156.132812 321.824219 129.382812 322.269531 103.046875 C 322.644531 75.945312 321.214844 47.382812 318.03125 18.148438 "/>
</g>
</g>
</svg>
