<?xml version="1.0" encoding="UTF-8"?>
<svg xmlns="http://www.w3.org/2000/svg" xmlns:xlink="http://www.w3.org/1999/xlink" width="375pt" height="374.999991pt" viewBox="0 0 375 374.999991" version="1.2">
<defs>
<clipPath id="clip1">
  <path d="M 3.757812 52.910156 L 266 52.910156 L 266 322.160156 L 3.757812 322.160156 Z M 3.757812 52.910156 "/>
</clipPath>
<clipPath id="clip2">
  <path d="M 199 187 L 371.257812 187 L 371.257812 322.160156 L 199 322.160156 Z M 199 187 "/>
</clipPath>
</defs>
<g id="surface1">
<g clip-path="url(#clip1)" clip-rule="nonzero">
<path style=" stroke:none;fill-rule:nonzero;fill:rgb(95.289612%,91.369629%,82.348633%);fill-opacity:1;" d="M 26.246094 309.921875 L 193.027344 309.921875 L 185.230469 322.160156 L 3.964844 322.160156 L 175.273438 52.910156 L 265.90625 195.378906 L 258.660156 206.773438 L 246.425781 187.535156 L 211.980469 163.058594 L 175.273438 187.535156 L 138.5625 163.058594 L 104.128906 187.535156 Z M 26.246094 309.921875 "/>
</g>
<g clip-path="url(#clip2)" clip-rule="nonzero">
<path style=" stroke:none;fill-rule:nonzero;fill:rgb(95.289612%,91.369629%,82.348633%);fill-opacity:1;" d="M 285.398438 187.535156 L 207.539062 309.921875 L 199.746094 322.160156 L 371.050781 322.160156 Z M 222.039062 309.921875 L 253.179688 260.964844 L 273.160156 248.726562 L 285.398438 260.964844 L 297.632812 248.726562 L 317.617188 260.964844 L 348.769531 309.921875 Z M 222.039062 309.921875 "/>
</g>
</g>
</svg>
