<?xml version="1.0" encoding="UTF-8"?>
<svg xmlns="http://www.w3.org/2000/svg" xmlns:xlink="http://www.w3.org/1999/xlink" width="375pt" height="374.999991pt" viewBox="0 0 375 374.999991" version="1.2">
<defs>
<clipPath id="clip1">
  <path d="M 6.507812 6.507812 L 113 6.507812 L 113 158 L 6.507812 158 Z M 6.507812 6.507812 "/>
</clipPath>
<clipPath id="clip2">
  <path d="M 81 142 L 279 142 L 279 368.757812 L 81 368.757812 Z M 81 142 "/>
</clipPath>
<clipPath id="clip3">
  <path d="M 232 157 L 368.757812 157 L 368.757812 368.757812 L 232 368.757812 Z M 232 157 "/>
</clipPath>
</defs>
<g id="surface1">
<g clip-path="url(#clip1)" clip-rule="nonzero">
<path style=" stroke:none;fill-rule:nonzero;fill:rgb(95.289612%,91.369629%,82.348633%);fill-opacity:1;" d="M 59.335938 6.507812 C 30.207031 6.507812 6.507812 30.207031 6.507812 59.335938 C 6.507812 85.933594 48.347656 147.289062 53.117188 154.1875 C 54.535156 156.222656 56.863281 157.445312 59.335938 157.445312 C 61.8125 157.445312 64.136719 156.222656 65.554688 154.1875 C 70.324219 147.273438 112.164062 85.933594 112.164062 59.335938 C 112.164062 30.207031 88.46875 6.507812 59.335938 6.507812 Z M 59.335938 81.976562 C 46.839844 81.976562 36.695312 71.835938 36.695312 59.335938 C 36.695312 46.839844 46.839844 36.695312 59.335938 36.695312 C 71.835938 36.695312 81.976562 46.839844 81.976562 59.335938 C 81.976562 71.835938 71.835938 81.976562 59.335938 81.976562 Z M 59.335938 81.976562 "/>
</g>
<g clip-path="url(#clip2)" clip-rule="nonzero">
<path style=" stroke:none;fill-rule:nonzero;fill:rgb(95.289612%,91.369629%,82.348633%);fill-opacity:1;" d="M 270.648438 368.757812 C 259.148438 368.757812 248.597656 367.808594 239.285156 365.921875 C 235.195312 365.089844 232.566406 361.105469 233.382812 357.015625 C 234.214844 352.925781 238.121094 350.328125 242.289062 351.113281 C 250.621094 352.804688 260.160156 353.664062 270.648438 353.664062 C 274.816406 353.664062 278.195312 357.046875 278.195312 361.210938 C 278.195312 365.378906 274.816406 368.757812 270.648438 368.757812 Z M 212.976562 355.386719 C 211.585938 355.386719 210.183594 355.007812 208.914062 354.191406 C 199.316406 348.066406 191.84375 340.140625 186.078125 329.996094 C 184.011719 326.375 185.292969 321.773438 188.917969 319.703125 C 192.539062 317.636719 197.144531 318.917969 199.210938 322.542969 C 203.738281 330.511719 209.566406 336.699219 217.050781 341.46875 C 220.566406 343.703125 221.59375 348.382812 219.347656 351.882812 C 217.910156 354.148438 215.464844 355.386719 212.976562 355.386719 Z M 182.667969 305.5 C 179.152344 305.5 176.011719 303.027344 175.285156 299.464844 C 173.082031 288.65625 172.011719 277.277344 171.316406 268.582031 C 170.984375 264.429688 174.09375 260.792969 178.246094 260.460938 C 182.382812 260.097656 186.035156 263.238281 186.367188 267.390625 C 187.015625 275.660156 188.042969 286.4375 190.078125 296.460938 C 190.910156 300.550781 188.269531 304.535156 184.191406 305.351562 C 183.679688 305.457031 183.179688 305.5 182.667969 305.5 Z M 176.675781 245.351562 C 172.796875 245.351562 169.492188 242.378906 169.160156 238.4375 C 168.132812 226.320312 166.894531 217.414062 165.097656 209.566406 C 164.164062 205.503906 166.714844 201.460938 170.773438 200.523438 C 174.789062 199.574219 178.878906 202.140625 179.816406 206.214844 C 181.761719 214.773438 183.105469 224.328125 184.191406 237.15625 C 184.539062 241.308594 181.460938 244.960938 177.308594 245.308594 C 177.097656 245.335938 176.886719 245.351562 176.675781 245.351562 Z M 161.460938 187.605469 C 158.984375 187.605469 156.554688 186.382812 155.121094 184.148438 C 150.292969 176.675781 144.074219 170.984375 136.105469 166.742188 C 132.421875 164.78125 131.03125 160.207031 132.980469 156.539062 C 134.941406 152.871094 139.515625 151.484375 143.183594 153.417969 C 153.324219 158.820312 161.613281 166.398438 167.785156 175.953125 C 170.050781 179.4375 169.039062 184.117188 165.550781 186.382812 C 164.285156 187.210938 162.863281 187.605469 161.460938 187.605469 Z M 111.152344 158.863281 C 110.804688 158.863281 110.445312 158.851562 110.066406 158.789062 C 103.804688 157.882812 96.695312 157.628906 89.539062 157.445312 C 85.375 157.445312 81.992188 154.066406 81.992188 149.898438 C 81.992188 145.671875 85.554688 142.019531 89.707031 142.351562 C 97.71875 142.351562 105.296875 142.851562 112.226562 143.847656 C 116.347656 144.449219 119.214844 148.269531 118.625 152.390625 C 118.066406 156.164062 114.835938 158.863281 111.152344 158.863281 Z M 111.152344 158.863281 "/>
</g>
<g clip-path="url(#clip3)" clip-rule="nonzero">
<path style=" stroke:none;fill-rule:nonzero;fill:rgb(95.289612%,91.369629%,82.348633%);fill-opacity:1;" d="M 300.835938 157.445312 C 263.390625 157.445312 232.914062 187.921875 232.914062 225.367188 C 232.914062 259.765625 288.050781 354.375 294.332031 365.046875 C 295.691406 367.339844 298.148438 368.757812 300.835938 368.757812 C 303.523438 368.757812 305.984375 367.339844 307.34375 365.046875 C 313.636719 354.375 368.757812 259.765625 368.757812 225.367188 C 368.757812 187.921875 338.285156 157.445312 300.835938 157.445312 Z M 300.835938 263.101562 C 280.023438 263.101562 263.101562 246.183594 263.101562 225.367188 C 263.101562 204.554688 280.023438 187.632812 300.835938 187.632812 C 321.652344 187.632812 338.570312 204.554688 338.570312 225.367188 C 338.570312 246.183594 321.652344 263.101562 300.835938 263.101562 Z M 300.835938 263.101562 "/>
</g>
</g>
</svg>
