<?xml version="1.0" encoding="UTF-8"?>
<svg xmlns="http://www.w3.org/2000/svg" xmlns:xlink="http://www.w3.org/1999/xlink" width="375pt" height="374.999991pt" viewBox="0 0 375 374.999991" version="1.2">
<defs>
<clipPath id="clip1">
  <path d="M 104.1875 7 L 270.570312 7 L 270.570312 367 L 104.1875 367 Z M 104.1875 7 "/>
</clipPath>
</defs>
<g id="surface1">
<g clip-path="url(#clip1)" clip-rule="nonzero">
<path style=" stroke:none;fill-rule:nonzero;fill:rgb(6.269836%,5.879211%,5.099487%);fill-opacity:1;" d="M 262.335938 333.527344 L 112.152344 333.527344 L 112.152344 39.707031 L 262.335938 39.707031 Z M 266.351562 7.808594 C 264.121094 7.808594 262.335938 9.59375 262.335938 11.792969 L 262.335938 31.742188 L 250.546875 31.742188 L 250.546875 11.792969 C 250.546875 9.59375 248.765625 7.808594 246.566406 7.808594 C 244.367188 7.808594 242.582031 9.59375 242.582031 11.792969 L 242.582031 31.742188 L 230.761719 31.742188 L 230.761719 11.792969 C 230.761719 9.59375 228.980469 7.808594 226.78125 7.808594 C 224.582031 7.808594 222.796875 9.59375 222.796875 11.792969 L 222.796875 31.742188 L 211.011719 31.742188 L 211.011719 11.792969 C 211.011719 9.59375 209.226562 7.808594 207.027344 7.808594 C 204.828125 7.808594 203.046875 9.59375 203.046875 11.792969 L 203.046875 31.742188 L 191.226562 31.742188 L 191.226562 11.792969 C 191.226562 9.59375 189.472656 7.808594 187.242188 7.808594 C 185.046875 7.808594 183.261719 9.59375 183.261719 11.792969 L 183.261719 31.742188 L 171.472656 31.742188 L 171.472656 11.792969 C 171.472656 9.59375 169.6875 7.808594 167.492188 7.808594 C 165.292969 7.808594 163.476562 9.59375 163.476562 11.792969 L 163.476562 31.742188 L 151.6875 31.742188 L 151.6875 11.792969 C 151.6875 9.59375 149.902344 7.808594 147.707031 7.808594 C 145.507812 7.808594 143.722656 9.59375 143.722656 11.792969 L 143.722656 31.742188 L 131.933594 31.742188 L 131.933594 11.792969 C 131.933594 9.59375 130.152344 7.808594 127.953125 7.808594 C 125.753906 7.808594 123.96875 9.59375 123.96875 11.792969 L 123.96875 31.742188 L 112.152344 31.742188 L 112.152344 11.792969 C 112.152344 9.59375 110.367188 7.808594 108.167969 7.808594 C 105.96875 7.808594 104.1875 9.59375 104.1875 11.792969 L 104.1875 337.511719 C 104.1875 337.765625 104.28125 337.957031 104.3125 338.179688 C 104.28125 338.402344 104.1875 338.625 104.1875 338.847656 L 104.1875 362.78125 C 104.1875 364.980469 105.96875 366.765625 108.167969 366.765625 C 110.367188 366.765625 112.152344 364.980469 112.152344 362.78125 L 112.152344 341.492188 L 123.96875 341.492188 L 123.96875 362.78125 C 123.96875 364.980469 125.753906 366.765625 127.953125 366.765625 C 130.152344 366.765625 131.933594 364.980469 131.933594 362.78125 L 131.933594 341.492188 L 143.722656 341.492188 L 143.722656 362.78125 C 143.722656 364.980469 145.507812 366.765625 147.707031 366.765625 C 149.902344 366.765625 151.6875 364.980469 151.6875 362.78125 L 151.6875 341.492188 L 163.476562 341.492188 L 163.476562 362.78125 C 163.476562 364.980469 165.292969 366.765625 167.492188 366.765625 C 169.6875 366.765625 171.472656 364.980469 171.472656 362.78125 L 171.472656 341.492188 L 183.261719 341.492188 L 183.261719 362.78125 C 183.261719 364.980469 185.046875 366.765625 187.242188 366.765625 C 189.441406 366.765625 191.226562 364.980469 191.226562 362.78125 L 191.226562 341.492188 L 203.046875 341.492188 L 203.046875 362.78125 C 203.046875 364.980469 204.828125 366.765625 207.027344 366.765625 C 209.226562 366.765625 211.011719 364.980469 211.011719 362.78125 L 211.011719 341.492188 L 222.796875 341.492188 L 222.796875 362.78125 C 222.796875 364.980469 224.582031 366.765625 226.78125 366.765625 C 228.980469 366.765625 230.761719 364.980469 230.761719 362.78125 L 230.761719 341.492188 L 242.582031 341.492188 L 242.582031 362.78125 C 242.582031 364.980469 244.367188 366.765625 246.566406 366.765625 C 248.765625 366.765625 250.546875 364.980469 250.546875 362.78125 L 250.546875 341.492188 L 262.335938 341.492188 L 262.335938 362.78125 C 262.335938 364.980469 264.121094 366.765625 266.351562 366.765625 C 268.546875 366.765625 270.332031 364.980469 270.332031 362.78125 L 270.332031 338.847656 C 270.332031 338.59375 270.238281 338.402344 270.207031 338.179688 C 270.238281 337.957031 270.332031 337.765625 270.332031 337.511719 L 270.332031 11.792969 C 270.332031 9.59375 268.546875 7.808594 266.351562 7.808594 "/>
</g>
<path style=" stroke:none;fill-rule:nonzero;fill:rgb(6.269836%,5.879211%,5.099487%);fill-opacity:1;" d="M 128.589844 74.601562 C 128.621094 74.601562 129.640625 75.046875 130.691406 75.972656 C 131.96875 77.054688 133.816406 77.246094 135.28125 76.417969 C 136.746094 75.589844 137.542969 73.933594 137.253906 72.277344 C 137.097656 71.382812 137.097656 70.460938 137.289062 69.40625 C 137.351562 68.800781 137.925781 66.984375 138.691406 66.476562 C 139.039062 66.890625 139.613281 68.007812 139.421875 70.394531 C 139.421875 70.394531 139.359375 71.320312 138.945312 72.46875 C 138.402344 74.027344 138.878906 75.75 140.15625 76.832031 C 141.429688 77.886719 143.214844 78.042969 144.648438 77.246094 C 145.347656 76.863281 146.113281 76.578125 146.972656 76.386719 C 147.003906 76.386719 147.707031 76.226562 148.597656 76.226562 C 149.523438 76.226562 150 76.386719 150.253906 76.546875 C 149.96875 77.246094 148.980469 78.074219 146.910156 78.746094 C 146.910156 78.746094 145.824219 79.097656 144.234375 79.097656 C 142.511719 79.128906 140.984375 80.117188 140.410156 81.707031 C 139.835938 83.300781 140.3125 85.117188 141.652344 86.171875 C 142.449219 86.808594 143.085938 87.574219 143.628906 88.527344 C 143.820312 88.816406 144.742188 90.726562 144.488281 91.683594 C 143.5625 91.589844 142.449219 90.695312 141.398438 89.164062 C 141.367188 89.164062 140.664062 88.144531 140.21875 86.679688 C 139.742188 85.054688 138.273438 83.941406 136.585938 83.84375 C 136.523438 83.84375 136.460938 83.84375 136.394531 83.84375 C 134.800781 83.84375 133.335938 84.800781 132.730469 86.296875 C 132.382812 87.125 131.933594 87.828125 131.328125 88.558594 C 130.691406 89.355469 129.578125 90.1875 128.589844 90.3125 C 128.496094 89.582031 128.78125 88.335938 129.960938 86.679688 C 129.960938 86.648438 130.757812 85.53125 132.09375 84.609375 C 133.464844 83.652344 134.101562 81.933594 133.6875 80.339844 C 133.273438 78.714844 131.902344 77.535156 130.246094 77.34375 C 129.101562 77.214844 128.082031 76.898438 126.996094 76.292969 C 126.710938 76.132812 124.925781 74.984375 124.671875 74.027344 C 125.277344 73.742188 126.773438 73.773438 128.589844 74.601562 Z M 122.761719 83.078125 C 118.777344 89.484375 121.199219 94.617188 123.140625 96.496094 C 123.300781 96.65625 123.492188 96.8125 123.683594 96.941406 C 125.148438 97.929688 126.773438 98.4375 128.496094 98.4375 C 131.746094 98.4375 134.386719 96.589844 135.949219 95.1875 C 139.039062 98.855469 142.351562 99.683594 144.648438 99.683594 C 146.589844 99.683594 147.960938 99.078125 148.34375 98.886719 C 148.535156 98.789062 148.726562 98.664062 148.917969 98.535156 C 153.34375 95.316406 153.1875 89.804688 151.148438 85.660156 C 157.582031 82.917969 158.664062 77.660156 158.316406 75.082031 C 158.28125 74.855469 158.21875 74.632812 158.125 74.410156 C 156.816406 70.492188 153.34375 68.261719 148.597656 68.261719 C 148.152344 68.261719 147.769531 68.261719 147.386719 68.292969 C 146.941406 61.855469 142.734375 59.050781 140.3125 58.476562 C 140.058594 58.414062 139.835938 58.382812 139.613281 58.351562 C 139.519531 58.351562 139.105469 58.351562 139.007812 58.351562 C 134.039062 58.351562 130.882812 62.367188 129.738281 66.507812 C 128.335938 66.0625 126.996094 65.839844 125.691406 65.839844 C 120.371094 65.839844 117.917969 69.375 117.664062 69.789062 C 117.535156 69.980469 117.40625 70.203125 117.3125 70.394531 C 115.050781 75.78125 118.554688 80.6875 122.761719 83.078125 "/>
<path style=" stroke:none;fill-rule:nonzero;fill:rgb(6.269836%,5.879211%,5.099487%);fill-opacity:1;" d="M 193.996094 106.597656 C 192.339844 106.597656 190.746094 107.617188 190.175781 109.210938 C 189.601562 110.804688 190.078125 112.589844 191.417969 113.671875 C 192.179688 114.308594 192.851562 115.074219 193.390625 116.03125 C 193.582031 116.316406 194.507812 118.230469 194.253906 119.183594 C 193.328125 119.089844 192.214844 118.199219 191.128906 116.667969 C 191.128906 116.667969 190.398438 115.648438 189.984375 114.183594 C 189.503906 112.558594 188.039062 111.441406 186.351562 111.347656 C 186.289062 111.347656 186.222656 111.347656 186.160156 111.347656 C 184.566406 111.347656 183.101562 112.300781 182.464844 113.800781 C 182.144531 114.628906 181.699219 115.328125 181.09375 116.0625 C 180.457031 116.859375 179.34375 117.6875 178.355469 117.816406 C 178.257812 117.082031 178.546875 115.839844 179.722656 114.183594 C 179.722656 114.148438 180.488281 113.035156 181.859375 112.078125 C 183.230469 111.15625 183.867188 109.433594 183.453125 107.839844 C 183.039062 106.214844 181.667969 105.035156 180.011719 104.84375 C 178.863281 104.71875 177.84375 104.398438 176.761719 103.792969 C 176.476562 103.632812 174.691406 102.488281 174.4375 101.53125 C 175.042969 101.242188 176.539062 101.277344 178.386719 102.105469 C 178.386719 102.105469 179.40625 102.550781 180.488281 103.472656 C 181.761719 104.589844 183.578125 104.78125 185.046875 103.953125 C 186.511719 103.09375 187.308594 101.433594 187.019531 99.777344 C 186.859375 98.886719 186.859375 97.960938 187.050781 96.910156 C 187.117188 96.304688 187.6875 94.550781 188.453125 93.976562 C 188.964844 94.550781 189.378906 95.761719 189.1875 97.898438 C 189.1875 97.898438 189.121094 98.820312 188.707031 99.96875 C 188.167969 101.53125 188.675781 103.285156 189.917969 104.335938 C 191.195312 105.417969 192.976562 105.578125 194.445312 104.75 C 195.113281 104.367188 195.878906 104.078125 196.738281 103.921875 C 196.738281 103.921875 197.46875 103.730469 198.363281 103.730469 C 199.316406 103.730469 199.796875 103.890625 200.050781 104.078125 C 199.796875 104.558594 199.03125 105.515625 196.671875 106.246094 C 196.671875 106.246094 195.558594 106.597656 193.996094 106.597656 Z M 198.679688 126.035156 C 203.078125 122.816406 202.949219 117.335938 200.910156 113.164062 C 207.347656 110.421875 208.429688 105.164062 208.046875 102.582031 C 208.015625 102.359375 207.984375 102.136719 207.886719 101.914062 C 206.613281 97.992188 203.109375 95.761719 198.363281 95.761719 C 197.949219 95.761719 197.535156 95.761719 197.152344 95.792969 C 196.707031 89.355469 192.5 86.554688 190.078125 85.980469 C 189.855469 85.914062 189.601562 85.882812 189.378906 85.851562 C 189.28125 85.851562 188.867188 85.851562 188.773438 85.851562 C 183.800781 85.851562 180.648438 89.867188 179.5 94.011719 C 178.101562 93.5625 176.761719 93.339844 175.457031 93.339844 C 170.136719 93.339844 167.679688 96.878906 167.425781 97.292969 C 167.300781 97.484375 167.171875 97.707031 167.078125 97.898438 C 164.8125 103.285156 168.320312 108.191406 172.523438 110.582031 C 168.542969 116.988281 170.964844 122.117188 172.90625 123.996094 C 173.066406 124.15625 173.257812 124.316406 173.449219 124.445312 C 174.914062 125.429688 176.539062 125.941406 178.257812 125.941406 C 181.507812 125.941406 184.152344 124.125 185.714844 122.691406 C 188.835938 126.355469 192.117188 127.183594 194.410156 127.183594 C 196.355469 127.183594 197.726562 126.578125 198.105469 126.386719 C 198.296875 126.292969 198.488281 126.164062 198.679688 126.035156 "/>
<path style=" stroke:none;fill-rule:nonzero;fill:rgb(6.269836%,5.879211%,5.099487%);fill-opacity:1;" d="M 157.582031 159.976562 C 157.582031 159.976562 156.5 160.328125 154.90625 160.328125 C 153.089844 160.359375 151.6875 161.378906 151.082031 162.972656 C 150.507812 164.566406 150.988281 166.347656 152.324219 167.433594 C 153.089844 168.070312 153.757812 168.835938 154.300781 169.757812 C 154.492188 170.078125 155.414062 171.957031 155.160156 172.945312 C 154.238281 172.820312 153.121094 171.957031 152.039062 170.394531 C 152.039062 170.394531 151.304688 169.375 150.890625 167.941406 C 150.414062 166.316406 148.949219 165.171875 147.257812 165.105469 C 147.195312 165.105469 147.132812 165.105469 147.070312 165.105469 C 145.445312 165.105469 144.011719 166.0625 143.371094 167.558594 C 143.054688 168.355469 142.609375 169.089844 141.972656 169.824219 C 141.332031 170.585938 140.25 171.449219 139.261719 171.574219 C 139.136719 170.8125 139.453125 169.601562 140.632812 167.910156 C 140.632812 167.910156 141.398438 166.761719 142.765625 165.839844 C 144.136719 164.882812 144.773438 163.195312 144.359375 161.570312 C 143.945312 159.945312 142.578125 158.765625 140.886719 158.574219 C 139.773438 158.476562 138.753906 158.128906 137.671875 157.554688 C 137.351562 157.363281 135.597656 156.214844 135.3125 155.257812 C 135.949219 154.972656 137.445312 155.003906 139.292969 155.832031 C 139.292969 155.863281 140.3125 156.3125 141.398438 157.203125 C 142.671875 158.320312 144.488281 158.511719 145.953125 157.679688 C 147.417969 156.851562 148.214844 155.195312 147.929688 153.539062 C 147.769531 152.613281 147.769531 151.691406 147.960938 150.671875 C 148.023438 150.066406 148.597656 148.28125 149.332031 147.738281 C 149.871094 148.28125 150.253906 149.523438 150.09375 151.625 C 150.09375 151.625 150.03125 152.550781 149.617188 153.699219 C 149.074219 155.292969 149.554688 157.011719 150.828125 158.0625 C 152.101562 159.117188 153.886719 159.304688 155.320312 158.476562 C 156.019531 158.09375 156.785156 157.839844 157.644531 157.617188 C 157.644531 157.617188 158.378906 157.457031 159.269531 157.457031 C 160.195312 157.457031 160.671875 157.617188 160.925781 157.777344 C 160.609375 158.476562 159.652344 159.339844 157.582031 159.976562 Z M 168.828125 155.640625 C 167.523438 151.753906 164.019531 149.492188 159.269531 149.492188 C 158.855469 149.492188 158.441406 149.523438 158.058594 149.554688 C 157.644531 143.117188 153.410156 140.3125 150.988281 139.707031 C 150.765625 139.644531 150.507812 139.613281 150.285156 139.613281 C 150.191406 139.613281 149.777344 139.582031 149.710938 139.582031 C 144.710938 139.582031 141.558594 143.597656 140.441406 147.769531 C 139.039062 147.324219 137.671875 147.101562 136.363281 147.101562 C 131.042969 147.101562 128.589844 150.636719 128.335938 151.054688 C 128.207031 151.242188 128.082031 151.433594 127.984375 151.660156 C 125.722656 157.011719 129.226562 161.953125 133.433594 164.308594 C 129.449219 170.746094 131.871094 175.878906 133.816406 177.757812 C 133.972656 177.917969 134.164062 178.042969 134.355469 178.203125 C 135.820312 179.191406 137.445312 179.703125 139.167969 179.703125 C 142.417969 179.703125 145.0625 177.851562 146.621094 176.453125 C 149.710938 180.117188 153.027344 180.914062 155.320312 180.914062 C 157.261719 180.914062 158.632812 180.339844 159.015625 180.148438 C 159.207031 180.050781 159.398438 179.925781 159.589844 179.796875 C 163.984375 176.546875 163.859375 171.066406 161.820312 166.921875 C 168.253906 164.152344 169.339844 158.925781 168.957031 156.34375 C 168.925781 156.089844 168.890625 155.863281 168.828125 155.640625 "/>
<path style=" stroke:none;fill-rule:nonzero;fill:rgb(6.269836%,5.879211%,5.099487%);fill-opacity:1;" d="M 244.144531 162.9375 C 244.113281 162.9375 243.027344 163.289062 241.46875 163.289062 C 239.8125 163.355469 238.21875 164.308594 237.644531 165.902344 C 237.070312 167.527344 237.550781 169.3125 238.855469 170.363281 C 239.652344 171 240.320312 171.765625 240.863281 172.722656 C 241.054688 173.042969 241.945312 174.921875 241.722656 175.878906 C 240.800781 175.78125 239.683594 174.890625 238.601562 173.359375 C 238.601562 173.359375 237.867188 172.339844 237.453125 170.90625 C 236.976562 169.28125 235.511719 168.132812 233.820312 168.070312 C 233.757812 168.039062 233.695312 168.039062 233.628906 168.039062 C 232.007812 168.039062 230.570312 169.027344 229.933594 170.492188 C 229.617188 171.320312 229.171875 172.054688 228.535156 172.753906 C 227.894531 173.550781 226.8125 174.410156 225.824219 174.539062 C 225.699219 173.773438 225.984375 172.53125 227.164062 170.875 C 227.195312 170.875 227.960938 169.726562 229.328125 168.804688 C 230.699219 167.847656 231.304688 166.125 230.890625 164.53125 C 230.476562 162.90625 229.105469 161.726562 227.449219 161.539062 C 226.335938 161.441406 225.285156 161.089844 224.230469 160.515625 C 223.914062 160.328125 222.160156 159.179688 221.875 158.222656 C 222.511719 157.9375 223.976562 157.96875 225.824219 158.796875 C 225.855469 158.828125 226.875 159.273438 227.929688 160.167969 C 229.203125 161.28125 231.050781 161.472656 232.515625 160.644531 C 233.980469 159.816406 234.746094 158.128906 234.460938 156.46875 C 234.332031 155.578125 234.332031 154.6875 234.492188 153.632812 C 234.585938 153.027344 235.128906 151.242188 235.894531 150.703125 C 236.402344 151.242188 236.816406 152.488281 236.65625 154.589844 C 236.65625 154.589844 236.5625 155.515625 236.179688 156.660156 C 235.636719 158.253906 236.117188 159.976562 237.390625 161.027344 C 238.664062 162.109375 240.449219 162.269531 241.882812 161.472656 C 242.582031 161.058594 243.347656 160.804688 244.207031 160.613281 C 244.207031 160.613281 244.941406 160.421875 245.832031 160.421875 C 246.757812 160.421875 247.234375 160.582031 247.488281 160.742188 C 247.171875 161.441406 246.214844 162.300781 244.144531 162.9375 Z M 255.519531 159.304688 C 255.484375 159.050781 255.453125 158.828125 255.359375 158.605469 C 254.050781 154.71875 250.578125 152.453125 245.832031 152.453125 C 245.386719 152.453125 245.003906 152.488281 244.621094 152.519531 C 244.175781 146.050781 239.972656 143.277344 237.550781 142.671875 C 237.292969 142.609375 237.070312 142.574219 236.847656 142.574219 C 236.753906 142.574219 236.339844 142.542969 236.242188 142.542969 C 231.273438 142.542969 228.117188 146.558594 226.972656 150.703125 C 225.570312 150.289062 224.230469 150.066406 222.925781 150.066406 C 217.605469 150.066406 215.152344 153.601562 214.867188 153.984375 C 214.738281 154.207031 214.640625 154.398438 214.546875 154.621094 C 212.285156 159.976562 215.757812 164.882812 219.996094 167.273438 C 215.980469 173.710938 218.433594 178.839844 220.378906 180.722656 C 220.535156 180.882812 220.726562 181.007812 220.917969 181.136719 C 222.382812 182.15625 224.007812 182.632812 225.730469 182.632812 C 228.980469 182.632812 231.625 180.816406 233.183594 179.414062 C 236.273438 183.046875 239.589844 183.875 241.882812 183.875 C 243.824219 183.875 245.195312 183.304688 245.546875 183.113281 C 245.769531 182.984375 245.960938 182.886719 246.152344 182.730469 C 250.546875 179.511719 250.390625 174.03125 248.382812 169.855469 C 254.785156 167.113281 255.902344 161.886719 255.519531 159.304688 "/>
<path style=" stroke:none;fill-rule:nonzero;fill:rgb(6.269836%,5.879211%,5.099487%);fill-opacity:1;" d="M 155.511719 226.992188 C 155.511719 226.992188 154.394531 227.34375 152.835938 227.34375 C 151.082031 227.34375 149.585938 228.394531 149.011719 229.988281 C 148.4375 231.582031 148.917969 233.367188 150.222656 234.449219 C 151.019531 235.085938 151.6875 235.851562 152.230469 236.808594 C 152.421875 237.0625 153.34375 239.007812 153.089844 239.964844 C 152.167969 239.867188 151.050781 238.976562 149.96875 237.445312 C 149.96875 237.414062 149.234375 236.425781 148.820312 234.960938 C 148.3125 233.367188 146.878906 232.21875 145.1875 232.125 C 145.125 232.09375 145.0625 232.09375 144.964844 232.09375 C 143.371094 232.09375 141.90625 233.078125 141.300781 234.546875 C 140.953125 235.40625 140.539062 236.105469 139.898438 236.871094 C 139.421875 237.445312 138.242188 238.433594 137.191406 238.59375 C 137.066406 237.828125 137.382812 236.585938 138.5625 234.894531 C 138.5625 234.894531 139.359375 233.78125 140.695312 232.855469 C 142.066406 231.902344 142.671875 230.210938 142.289062 228.585938 C 141.875 226.960938 140.472656 225.78125 138.847656 225.621094 C 137.703125 225.496094 136.683594 225.175781 135.597656 224.570312 C 135.28125 224.378906 133.527344 223.234375 133.242188 222.277344 C 133.878906 222.023438 135.34375 222.054688 137.191406 222.882812 C 137.222656 222.882812 138.242188 223.328125 139.292969 224.253906 C 140.570312 225.335938 142.417969 225.527344 143.882812 224.699219 C 145.347656 223.871094 146.144531 222.214844 145.859375 220.554688 C 145.699219 219.664062 145.699219 218.738281 145.859375 217.71875 C 145.984375 216.988281 146.527344 215.296875 147.257812 214.757812 C 147.769531 215.328125 148.183594 216.539062 148.023438 218.644531 C 148.023438 218.675781 147.929688 219.601562 147.546875 220.746094 C 147.003906 222.308594 147.484375 224.03125 148.757812 225.113281 C 150.03125 226.164062 151.816406 226.324219 153.25 225.527344 C 153.949219 225.144531 154.714844 224.859375 155.574219 224.667969 C 155.574219 224.667969 156.308594 224.507812 157.199219 224.507812 C 158.125 224.507812 158.632812 224.667969 158.855469 224.792969 C 158.570312 225.496094 157.582031 226.355469 155.511719 226.992188 Z M 166.726562 222.691406 C 165.453125 218.769531 161.945312 216.539062 157.199219 216.539062 C 156.785156 216.539062 156.371094 216.539062 155.988281 216.574219 C 155.574219 210.136719 151.335938 207.332031 148.917969 206.726562 C 148.695312 206.695312 148.4375 206.628906 148.214844 206.628906 C 148.121094 206.628906 147.707031 206.597656 147.640625 206.597656 C 142.640625 206.597656 139.484375 210.613281 138.339844 214.789062 C 136.9375 214.34375 135.597656 214.117188 134.292969 214.117188 C 128.972656 214.117188 126.519531 217.65625 126.265625 218.070312 C 126.136719 218.261719 126.007812 218.484375 125.914062 218.675781 C 123.652344 224.0625 127.125 228.96875 131.363281 231.359375 C 127.378906 237.765625 129.800781 242.894531 131.746094 244.777344 C 131.902344 244.933594 132.0625 245.09375 132.285156 245.191406 C 133.75 246.210938 135.375 246.71875 137.097656 246.71875 C 140.3125 246.71875 142.992188 244.871094 144.550781 243.46875 C 147.640625 247.132812 150.921875 247.929688 153.25 247.929688 C 155.191406 247.929688 156.5625 247.355469 156.914062 247.164062 C 157.136719 247.070312 157.328125 246.941406 157.519531 246.816406 C 161.914062 243.597656 161.789062 238.082031 159.75 233.941406 C 166.183594 231.199219 167.265625 225.910156 166.886719 223.359375 C 166.851562 223.136719 166.820312 222.882812 166.726562 222.691406 "/>
<path style=" stroke:none;fill-rule:nonzero;fill:rgb(6.269836%,5.879211%,5.099487%);fill-opacity:1;" d="M 216.9375 249.84375 C 215.3125 249.84375 213.878906 250.832031 213.242188 252.296875 C 212.890625 253.15625 212.476562 253.859375 211.839844 254.621094 C 211.359375 255.195312 210.214844 256.183594 209.128906 256.34375 C 209.003906 255.578125 209.320312 254.335938 210.5 252.679688 C 210.5 252.679688 211.265625 251.53125 212.636719 250.605469 C 214.003906 249.683594 214.640625 247.960938 214.226562 246.335938 C 213.8125 244.710938 212.445312 243.53125 210.789062 243.375 C 209.640625 243.246094 208.621094 242.925781 207.539062 242.320312 C 207.21875 242.128906 205.46875 240.984375 205.179688 240.058594 C 205.816406 239.742188 207.28125 239.773438 209.128906 240.601562 C 209.164062 240.632812 210.183594 241.078125 211.234375 242.003906 C 212.507812 243.117188 214.355469 243.277344 215.820312 242.449219 C 217.285156 241.621094 218.082031 239.964844 217.796875 238.304688 C 217.636719 237.414062 217.636719 236.488281 217.796875 235.46875 C 217.925781 234.738281 218.464844 232.984375 219.230469 232.472656 C 219.582031 232.921875 220.152344 234.003906 219.964844 236.425781 C 219.964844 236.425781 219.867188 237.351562 219.484375 238.496094 C 218.945312 240.058594 219.421875 241.78125 220.695312 242.832031 C 221.96875 243.914062 223.753906 244.074219 225.1875 243.277344 C 225.890625 242.894531 226.652344 242.609375 227.515625 242.417969 C 227.515625 242.417969 228.246094 242.226562 229.136719 242.226562 C 230.0625 242.226562 230.539062 242.386719 230.796875 242.542969 C 230.476562 243.246094 229.519531 244.105469 227.449219 244.742188 C 227.417969 244.742188 226.335938 245.125 224.773438 245.125 C 223.148438 245.09375 221.523438 246.144531 220.949219 247.707031 C 220.378906 249.300781 220.855469 251.117188 222.160156 252.199219 C 222.957031 252.804688 223.625 253.601562 224.167969 254.527344 C 224.359375 254.84375 225.25 256.757812 225.027344 257.714844 C 224.105469 257.585938 222.988281 256.726562 221.90625 255.164062 C 221.90625 255.164062 221.171875 254.175781 220.757812 252.710938 C 220.28125 251.085938 218.816406 249.9375 217.128906 249.84375 C 217.0625 249.84375 217 249.84375 216.9375 249.84375 Z M 225.21875 265.679688 C 227.164062 265.679688 228.5 265.105469 228.882812 264.914062 C 229.074219 264.820312 229.296875 264.691406 229.488281 264.535156 C 233.886719 261.347656 233.726562 255.867188 231.6875 251.691406 C 238.121094 248.917969 239.238281 243.660156 238.855469 241.109375 C 238.792969 240.886719 238.761719 240.632812 238.695312 240.441406 C 237.390625 236.523438 233.917969 234.289062 229.136719 234.289062 C 228.722656 234.289062 228.308594 234.289062 227.929688 234.324219 C 227.515625 227.855469 223.277344 225.082031 220.855469 224.476562 C 220.632812 224.410156 220.378906 224.378906 220.152344 224.378906 C 220.058594 224.378906 219.644531 224.347656 219.582031 224.347656 C 214.578125 224.347656 211.425781 228.363281 210.277344 232.507812 C 208.875 232.09375 207.539062 231.867188 206.230469 231.867188 C 200.910156 231.867188 198.457031 235.40625 198.203125 235.820312 C 198.074219 236.011719 197.949219 236.203125 197.851562 236.425781 C 195.589844 241.78125 199.09375 246.71875 203.300781 249.078125 C 199.316406 255.515625 201.738281 260.644531 203.683594 262.527344 C 203.84375 262.683594 204.035156 262.84375 204.222656 262.972656 C 205.691406 263.960938 207.316406 264.46875 209.035156 264.46875 C 212.285156 264.46875 214.929688 262.621094 216.492188 261.21875 C 219.613281 264.882812 222.894531 265.679688 225.21875 265.679688 "/>
<path style=" stroke:none;fill-rule:nonzero;fill:rgb(6.269836%,5.879211%,5.099487%);fill-opacity:1;" d="M 244.144531 78.746094 C 244.113281 78.746094 243.027344 79.097656 241.46875 79.097656 L 241.4375 79.097656 C 239.746094 79.160156 238.21875 80.117188 237.644531 81.707031 C 237.070312 83.300781 237.550781 85.117188 238.886719 86.171875 C 239.652344 86.808594 240.320312 87.574219 240.863281 88.527344 C 241.023438 88.816406 241.945312 90.726562 241.722656 91.683594 C 240.800781 91.589844 239.683594 90.695312 238.601562 89.164062 C 238.601562 89.164062 237.867188 88.144531 237.453125 86.679688 C 236.945312 85.054688 235.511719 83.941406 233.820312 83.84375 C 233.757812 83.84375 233.695312 83.84375 233.628906 83.84375 C 232.007812 83.84375 230.539062 84.800781 229.933594 86.296875 C 229.585938 87.125 229.171875 87.828125 228.535156 88.558594 C 227.894531 89.355469 226.8125 90.1875 225.824219 90.3125 C 225.699219 89.582031 225.984375 88.335938 227.164062 86.679688 C 227.195312 86.648438 227.960938 85.53125 229.296875 84.609375 C 230.667969 83.652344 231.304688 81.964844 230.890625 80.339844 C 230.476562 78.714844 229.105469 77.535156 227.449219 77.34375 C 226.335938 77.214844 225.285156 76.898438 224.199219 76.292969 C 223.914062 76.132812 222.160156 74.984375 221.875 74.027344 C 222.511719 73.742188 223.976562 73.773438 225.824219 74.601562 C 225.855469 74.601562 226.875 75.046875 227.929688 75.972656 C 229.203125 77.089844 231.019531 77.28125 232.515625 76.449219 C 233.980469 75.621094 234.746094 73.933594 234.460938 72.277344 C 234.332031 71.382812 234.332031 70.460938 234.492188 69.441406 C 234.585938 68.800781 235.128906 67.050781 235.894531 66.476562 C 236.402344 67.050781 236.816406 68.292969 236.65625 70.394531 C 236.65625 70.394531 236.5625 71.320312 236.179688 72.46875 C 235.636719 74.027344 236.117188 75.78125 237.390625 76.832031 C 238.664062 77.917969 240.449219 78.074219 241.882812 77.246094 C 242.582031 76.863281 243.316406 76.578125 244.207031 76.386719 C 244.207031 76.386719 244.941406 76.226562 245.832031 76.226562 C 246.757812 76.226562 247.234375 76.386719 247.488281 76.546875 C 247.171875 77.246094 246.183594 78.074219 244.144531 78.746094 Z M 244.621094 68.292969 C 244.175781 61.855469 239.972656 59.050781 237.550781 58.476562 C 237.292969 58.414062 237.070312 58.382812 236.847656 58.351562 C 236.753906 58.351562 236.339844 58.351562 236.242188 58.351562 C 231.273438 58.351562 228.117188 62.367188 226.972656 66.507812 C 225.570312 66.0625 224.230469 65.839844 222.925781 65.839844 C 217.605469 65.839844 215.152344 69.375 214.898438 69.789062 C 214.769531 69.980469 214.640625 70.203125 214.546875 70.394531 C 212.285156 75.75 215.757812 80.65625 219.996094 83.046875 C 216.011719 89.484375 218.433594 94.617188 220.378906 96.496094 C 220.535156 96.65625 220.726562 96.8125 220.917969 96.941406 C 222.382812 97.929688 224.007812 98.4375 225.730469 98.4375 C 228.980469 98.4375 231.625 96.589844 233.183594 95.1875 C 236.273438 98.855469 239.589844 99.652344 241.882812 99.652344 C 243.824219 99.652344 245.195312 99.078125 245.546875 98.886719 C 245.769531 98.789062 245.960938 98.664062 246.152344 98.535156 C 250.546875 95.285156 250.421875 89.804688 248.382812 85.660156 C 254.816406 82.917969 255.902344 77.660156 255.519531 75.082031 C 255.484375 74.855469 255.453125 74.632812 255.359375 74.378906 C 254.050781 70.492188 250.578125 68.261719 245.832031 68.261719 C 245.386719 68.261719 245.003906 68.261719 244.621094 68.292969 "/>
<path style=" stroke:none;fill-rule:nonzero;fill:rgb(6.269836%,5.879211%,5.099487%);fill-opacity:1;" d="M 146.910156 297.929688 C 146.910156 297.929688 145.792969 298.28125 144.234375 298.28125 C 144.234375 298.28125 144.234375 298.28125 144.203125 298.28125 C 142.542969 298.25 140.984375 299.332031 140.410156 300.925781 C 139.835938 302.519531 140.3125 304.304688 141.652344 305.386719 C 142.417969 305.992188 143.085938 306.757812 143.628906 307.714844 C 143.785156 308.03125 144.710938 309.914062 144.488281 310.867188 C 143.5625 310.773438 142.449219 309.914062 141.367188 308.382812 C 141.367188 308.382812 140.632812 307.363281 140.21875 305.898438 C 139.742188 304.273438 138.273438 303.125 136.585938 303.03125 C 136.523438 303.03125 136.460938 303.03125 136.394531 303.03125 C 134.769531 303.03125 133.335938 304.015625 132.699219 305.515625 C 132.382812 306.34375 131.933594 307.042969 131.296875 307.777344 C 130.691406 308.542969 129.578125 309.402344 128.589844 309.53125 C 128.460938 308.765625 128.78125 307.523438 129.960938 305.832031 C 129.960938 305.832031 130.757812 304.71875 132.0625 303.792969 C 133.464844 302.839844 134.101562 301.148438 133.6875 299.523438 C 133.273438 297.929688 131.871094 296.71875 130.246094 296.558594 C 129.132812 296.433594 128.046875 296.082031 126.996094 295.476562 C 126.710938 295.316406 124.925781 294.171875 124.671875 293.214844 C 125.277344 292.925781 126.773438 292.960938 128.621094 293.789062 C 128.621094 293.789062 129.640625 294.265625 130.691406 295.191406 C 131.96875 296.273438 133.816406 296.464844 135.28125 295.636719 C 136.746094 294.808594 137.542969 293.152344 137.253906 291.492188 C 137.097656 290.570312 137.097656 289.675781 137.289062 288.625 C 137.382812 287.988281 137.925781 286.203125 138.691406 285.660156 C 139.039062 286.109375 139.613281 287.191406 139.421875 289.613281 C 139.421875 289.613281 139.359375 290.503906 138.945312 291.652344 C 138.402344 293.246094 138.878906 294.96875 140.15625 296.050781 C 141.429688 297.070312 143.214844 297.261719 144.648438 296.464844 C 145.347656 296.050781 146.113281 295.796875 146.972656 295.605469 C 147.003906 295.574219 147.707031 295.445312 148.597656 295.445312 C 149.523438 295.445312 150 295.574219 150.253906 295.730469 C 149.96875 296.464844 148.980469 297.292969 146.910156 297.929688 Z M 158.125 293.597656 C 156.847656 289.707031 153.375 287.445312 148.597656 287.445312 C 148.183594 287.445312 147.769531 287.476562 147.386719 287.511719 C 146.941406 281.039062 142.734375 278.269531 140.3125 277.664062 C 140.089844 277.632812 139.835938 277.597656 139.613281 277.566406 C 139.519531 277.566406 139.105469 277.535156 139.039062 277.535156 C 134.039062 277.535156 130.882812 281.550781 129.769531 285.695312 C 128.367188 285.277344 126.996094 285.054688 125.691406 285.054688 C 120.371094 285.054688 117.917969 288.59375 117.664062 289.007812 C 117.535156 289.199219 117.40625 289.421875 117.3125 289.613281 C 115.050781 294.96875 118.523438 299.875 122.761719 302.265625 C 118.777344 308.703125 121.199219 313.832031 123.140625 315.679688 C 123.300781 315.871094 123.492188 316.03125 123.683594 316.125 C 125.148438 317.148438 126.773438 317.65625 128.496094 317.65625 C 131.746094 317.65625 134.386719 315.808594 135.949219 314.40625 C 139.039062 318.070312 142.351562 318.867188 144.648438 318.867188 C 146.589844 318.867188 147.960938 318.292969 148.34375 318.101562 C 148.535156 318.007812 148.726562 317.878906 148.917969 317.71875 C 153.3125 314.5 153.1875 309.019531 151.148438 304.878906 C 157.582031 302.105469 158.664062 296.847656 158.316406 294.296875 C 158.28125 294.042969 158.21875 293.820312 158.125 293.597656 "/>
<path style=" stroke:none;fill-rule:nonzero;fill:rgb(6.269836%,5.879211%,5.099487%);fill-opacity:1;" d="M 247.394531 300.988281 C 247.394531 300.988281 246.3125 301.339844 244.71875 301.339844 C 242.996094 301.371094 241.46875 302.359375 240.894531 303.953125 C 240.320312 305.578125 240.832031 307.363281 242.136719 308.445312 C 242.933594 309.050781 243.570312 309.816406 244.113281 310.773438 C 244.304688 311.09375 245.226562 312.972656 244.972656 313.929688 C 244.046875 313.832031 242.933594 312.972656 241.882812 311.441406 C 241.851562 311.410156 241.148438 310.390625 240.703125 308.957031 C 240.226562 307.332031 238.761719 306.183594 237.070312 306.089844 C 237.007812 306.089844 236.945312 306.089844 236.878906 306.089844 C 235.253906 306.089844 233.820312 307.042969 233.183594 308.574219 C 232.867188 309.371094 232.421875 310.070312 231.78125 310.835938 C 231.335938 311.441406 230.15625 312.429688 229.074219 312.558594 C 228.980469 311.824219 229.265625 310.582031 230.445312 308.925781 C 230.445312 308.894531 231.242188 307.777344 232.578125 306.851562 C 233.949219 305.898438 234.585938 304.207031 234.171875 302.582031 C 233.757812 300.988281 232.386719 299.777344 230.730469 299.621094 C 229.585938 299.460938 228.566406 299.140625 227.515625 298.566406 C 227.195312 298.375 225.410156 297.230469 225.125 296.273438 C 225.761719 295.988281 227.226562 296.019531 229.074219 296.847656 C 229.105469 296.847656 230.125 297.324219 231.210938 298.25 C 232.453125 299.332031 234.300781 299.523438 235.765625 298.695312 C 237.230469 297.867188 238.027344 296.210938 237.742188 294.550781 C 237.582031 293.628906 237.582031 292.734375 237.773438 291.683594 C 237.835938 291.078125 238.378906 289.292969 239.140625 288.753906 C 239.683594 289.328125 240.066406 290.539062 239.90625 292.671875 C 239.90625 292.671875 239.84375 293.566406 239.429688 294.710938 C 238.886719 296.304688 239.367188 298.027344 240.640625 299.109375 C 241.914062 300.128906 243.699219 300.320312 245.164062 299.523438 C 245.832031 299.109375 246.597656 298.855469 247.457031 298.664062 C 247.488281 298.632812 248.191406 298.503906 249.082031 298.503906 C 250.039062 298.503906 250.515625 298.632812 250.769531 298.824219 C 250.515625 299.300781 249.75 300.257812 247.394531 300.988281 Z M 247.871094 290.539062 C 247.457031 284.101562 243.21875 281.328125 240.800781 280.722656 C 240.574219 280.660156 240.351562 280.625 240.097656 280.625 C 240.035156 280.625 239.589844 280.59375 239.523438 280.59375 C 234.523438 280.59375 231.367188 284.609375 230.253906 288.753906 C 228.851562 288.339844 227.480469 288.117188 226.175781 288.117188 C 220.855469 288.117188 218.402344 291.652344 218.148438 292.066406 C 218.019531 292.226562 217.890625 292.449219 217.828125 292.671875 C 215.535156 298.027344 219.039062 302.933594 223.246094 305.324219 C 219.261719 311.761719 221.683594 316.890625 223.625 318.738281 C 223.785156 318.929688 223.976562 319.058594 224.167969 319.1875 C 225.664062 320.207031 227.289062 320.714844 229.011719 320.714844 C 232.230469 320.714844 234.90625 318.867188 236.464844 317.464844 C 239.554688 321.128906 242.839844 321.925781 245.164062 321.925781 C 247.105469 321.925781 248.445312 321.320312 248.828125 321.160156 C 249.019531 321.035156 249.242188 320.9375 249.433594 320.78125 C 253.828125 317.5625 253.671875 312.046875 251.632812 307.9375 C 258.066406 305.164062 259.183594 299.90625 258.800781 297.324219 C 258.769531 297.101562 258.703125 296.878906 258.640625 296.65625 C 257.335938 292.734375 253.863281 290.503906 249.082031 290.503906 C 248.667969 290.503906 248.253906 290.539062 247.871094 290.539062 "/>
</g>
</svg>
