<?xml version="1.0" encoding="UTF-8"?>
<svg xmlns="http://www.w3.org/2000/svg" xmlns:xlink="http://www.w3.org/1999/xlink" width="375pt" height="374.999991pt" viewBox="0 0 375 374.999991" version="1.2">
<defs>
<clipPath id="clip1">
  <path d="M 41.207031 8.703125 L 333.707031 8.703125 L 333.707031 366.148438 L 41.207031 366.148438 Z M 41.207031 8.703125 "/>
</clipPath>
</defs>
<g id="surface1">
<g clip-path="url(#clip1)" clip-rule="nonzero">
<path style=" stroke:none;fill-rule:nonzero;fill:rgb(0%,0%,0%);fill-opacity:1;" d="M 325.996094 346.3125 C 325.996094 352.476562 321.363281 357.574219 315.390625 358.324219 L 307.007812 349.933594 C 305.5 348.433594 303.054688 348.433594 301.542969 349.933594 L 293.066406 358.417969 L 284.265625 358.417969 L 275.789062 349.933594 C 274.28125 348.433594 271.824219 348.425781 270.316406 349.933594 L 261.839844 358.417969 L 253.035156 358.417969 L 244.5625 349.933594 C 243.050781 348.433594 240.605469 348.433594 239.09375 349.933594 L 230.617188 358.417969 L 221.816406 358.417969 L 213.339844 349.933594 C 211.832031 348.433594 209.382812 348.425781 207.867188 349.933594 L 199.390625 358.417969 L 196.1875 358.417969 L 154.054688 317.621094 L 325.996094 317.621094 Z M 140.644531 353.636719 C 140.644531 355.789062 139.214844 357.617188 137.253906 358.210938 L 128.984375 349.933594 C 127.472656 348.433594 125.027344 348.433594 123.515625 349.933594 L 115.035156 358.417969 L 106.238281 358.417969 L 97.757812 349.933594 C 96.25 348.433594 93.804688 348.425781 92.292969 349.933594 L 83.808594 358.417969 L 75.015625 358.417969 L 66.535156 349.933594 C 65.023438 348.433594 62.578125 348.433594 61.066406 349.933594 L 52.695312 358.308594 C 50.550781 357.839844 48.9375 355.914062 48.9375 353.636719 L 48.9375 317.621094 L 140.644531 317.621094 Z M 64.050781 292.179688 L 307.703125 292.179688 L 307.703125 309.894531 L 64.050781 309.894531 Z M 48.9375 45.066406 L 60.851562 54.722656 C 75.96875 66.972656 87.351562 82.648438 94.285156 100.191406 C 94.292969 100.21875 94.292969 100.234375 94.296875 100.257812 C 94.378906 100.558594 94.503906 100.84375 94.648438 101.105469 C 99.046875 112.535156 101.558594 124.738281 101.992188 137.296875 L 62.3125 137.296875 L 48.9375 116.175781 Z M 48.9375 16.433594 L 190.761719 16.433594 L 190.761719 33.097656 L 48.9375 33.097656 Z M 189.746094 117.773438 L 177.386719 137.296875 L 109.726562 137.296875 C 109.339844 125.128906 107.125 113.269531 103.230469 102.050781 C 117.421875 99.144531 164.085938 92.066406 189.75 117.773438 Z M 190.761719 108.25 C 160.824219 83.585938 113.488281 91.8125 100.398438 94.722656 C 92.90625 77.019531 81.125 61.203125 65.71875 48.722656 L 55.980469 40.828125 L 190.765625 40.828125 Z M 133.972656 284.441406 C 133.828125 281.089844 133.519531 277.761719 133.027344 274.457031 L 245.570312 274.457031 C 251.871094 274.457031 257.191406 278.683594 258.867188 284.441406 Z M 64.050781 192.199219 L 98.457031 224.257812 C 115.222656 239.882812 125.21875 261.636719 126.234375 284.441406 L 64.050781 284.441406 Z M 162.675781 161.953125 L 160.175781 161.953125 C 154.597656 161.953125 150.0625 166.488281 150.0625 172.070312 L 150.0625 177.066406 C 150.0625 182.644531 154.597656 187.179688 160.175781 187.179688 L 178.523438 187.179688 C 180.890625 193.722656 184.640625 199.625 189.542969 204.542969 L 178.246094 212.246094 C 173.640625 215.386719 172.441406 221.691406 175.585938 226.300781 L 176.984375 228.347656 C 176.984375 228.355469 176.984375 228.363281 176.992188 228.363281 L 177 228.371094 L 178.398438 230.429688 C 180.359375 233.296875 183.539062 234.847656 186.769531 234.847656 C 188.734375 234.847656 190.71875 234.273438 192.457031 233.089844 L 214.851562 217.824219 C 217.679688 218.339844 220.53125 218.601562 223.335938 218.601562 L 233.972656 218.601562 L 233.617188 228.816406 L 233.332031 236.824219 L 233.332031 236.847656 L 233.242188 239.316406 C 233.148438 242.019531 234.109375 244.59375 235.953125 246.570312 C 237.796875 248.546875 240.296875 249.691406 243 249.789062 L 245.46875 249.875 L 245.523438 249.875 L 247.988281 249.960938 L 248.359375 249.960938 C 250.917969 249.960938 253.359375 249.007812 255.25 247.246094 C 257.21875 245.410156 258.363281 242.910156 258.457031 240.207031 L 258.546875 237.730469 L 258.546875 237.707031 L 259.101562 221.9375 C 286.722656 230.667969 306.011719 255.472656 307.59375 284.441406 L 266.808594 284.441406 C 264.980469 274.386719 256.152344 266.730469 245.574219 266.730469 L 131.558594 266.730469 C 127.285156 248.4375 117.65625 231.574219 103.730469 218.601562 L 64.054688 181.636719 L 64.054688 145.023438 L 175.652344 145.023438 L 175.652344 161.953125 Z M 202.03125 172.070312 L 202.03125 177.066406 C 202.03125 178.378906 200.960938 179.449219 199.648438 179.449219 L 162.675781 179.449219 C 159.984375 179.449219 157.792969 177.257812 157.792969 174.566406 C 157.792969 171.871094 159.984375 169.679688 162.675781 169.679688 L 199.648438 169.679688 C 200.960938 169.679688 202.03125 170.753906 202.03125 172.070312 Z M 215.210938 196.402344 C 216.300781 195.664062 217.785156 195.949219 218.53125 197.027344 L 221.34375 201.160156 C 222.082031 202.246094 221.796875 203.734375 220.714844 204.480469 L 211.84375 210.523438 L 211.835938 210.523438 L 190.171875 225.296875 C 189.089844 226.039062 187.796875 226.308594 186.5 226.0625 C 185.222656 225.824219 184.117188 225.09375 183.378906 224.011719 C 181.863281 221.789062 182.441406 218.746094 184.664062 217.226562 L 197.957031 208.164062 C 197.964844 208.15625 197.980469 208.148438 197.988281 208.140625 Z M 243.117188 198.492188 C 243.554688 198.078125 244.136719 197.847656 244.738281 197.847656 L 244.824219 197.847656 L 249.816406 198.03125 C 251.132812 198.070312 252.167969 199.179688 252.117188 200.5 L 250.824219 237.453125 C 250.71875 240.121094 248.589844 242.304688 245.828125 242.144531 L 245.746094 242.144531 C 243.070312 242.035156 240.972656 239.785156 241.0625 237.109375 L 241.570312 222.460938 L 241.839844 214.871094 L 242.355469 200.152344 C 242.378906 199.515625 242.648438 198.925781 243.117188 198.492188 Z M 329.867188 309.894531 L 315.433594 309.894531 L 315.433594 288.3125 C 315.433594 253.578125 292.539062 223.441406 259.378906 213.957031 L 259.847656 200.769531 C 260.039062 195.195312 255.667969 190.5 250.09375 190.300781 L 245.097656 190.125 C 242.355469 190.054688 239.820312 190.992188 237.84375 192.835938 C 235.863281 194.675781 234.730469 197.179688 234.632812 199.878906 L 234.246094 210.875 L 225.054688 210.875 L 225.070312 210.859375 C 227.300781 209.339844 228.804688 207.046875 229.3125 204.382812 C 229.8125 201.730469 229.246094 199.039062 227.730469 196.804688 L 224.910156 192.675781 C 221.773438 188.070312 215.457031 186.871094 210.855469 190.023438 L 196.066406 200.09375 C 192.140625 196.433594 189.027344 192.046875 186.859375 187.179688 L 199.648438 187.179688 C 205.226562 187.179688 209.769531 182.644531 209.769531 177.066406 L 209.769531 172.070312 C 209.769531 166.488281 205.226562 161.953125 199.648438 161.953125 L 183.378906 161.953125 L 183.378906 142.277344 L 197.894531 119.367188 C 197.957031 119.265625 198.011719 119.152344 198.066406 119.050781 C 198.089844 119.003906 198.113281 118.964844 198.140625 118.925781 C 198.226562 118.71875 198.296875 118.511719 198.359375 118.296875 C 198.378906 118.25 198.378906 118.191406 198.394531 118.136719 C 198.433594 117.96875 198.457031 117.796875 198.472656 117.621094 C 198.472656 117.566406 198.480469 117.503906 198.488281 117.4375 C 198.488281 117.390625 198.496094 117.34375 198.496094 117.296875 L 198.496094 12.574219 C 198.496094 10.4375 196.765625 8.703125 194.628906 8.703125 L 45.082031 8.703125 C 42.945312 8.703125 41.210938 10.4375 41.210938 12.570312 L 41.210938 117.292969 C 41.210938 118.03125 41.421875 118.746094 41.8125 119.367188 L 56.324219 142.273438 L 56.324219 309.890625 L 45.078125 309.890625 C 42.945312 309.890625 41.210938 311.621094 41.210938 313.757812 L 41.210938 353.632812 C 41.210938 360.527344 46.824219 366.144531 53.726562 366.144531 L 54.191406 366.144531 C 55.214844 366.144531 56.195312 365.730469 56.921875 365.007812 L 63.804688 358.128906 L 70.683594 365.007812 C 71.410156 365.730469 72.390625 366.144531 73.417969 366.144531 L 85.414062 366.144531 C 86.441406 366.144531 87.421875 365.730469 88.148438 365.007812 L 95.027344 358.128906 L 101.90625 365.007812 C 102.632812 365.730469 103.613281 366.144531 104.640625 366.144531 L 116.640625 366.144531 C 117.664062 366.144531 118.648438 365.730469 119.371094 365.007812 L 126.253906 358.128906 L 133.132812 365.007812 C 133.855469 365.730469 134.839844 366.144531 135.867188 366.144531 C 142.769531 366.144531 148.378906 360.527344 148.378906 353.632812 L 148.378906 322.886719 L 191.941406 365.054688 C 192.65625 365.753906 193.625 366.144531 194.628906 366.144531 L 200.992188 366.144531 C 202.015625 366.144531 203 365.730469 203.722656 365.007812 L 210.601562 358.128906 L 217.484375 365.007812 C 218.207031 365.730469 219.191406 366.144531 220.214844 366.144531 L 232.21875 366.144531 C 233.242188 366.144531 234.21875 365.730469 234.953125 365.007812 L 241.832031 358.128906 L 248.710938 365.007812 C 249.433594 365.730469 250.417969 366.144531 251.445312 366.144531 L 263.4375 366.144531 C 264.464844 366.144531 265.449219 365.730469 266.171875 365.007812 L 273.050781 358.128906 L 279.929688 365.007812 C 280.652344 365.730469 281.640625 366.144531 282.664062 366.144531 L 294.667969 366.144531 C 295.691406 366.144531 296.667969 365.730469 297.398438 365.007812 L 304.277344 358.128906 L 311.160156 365.007812 C 311.882812 365.730469 312.867188 366.144531 313.890625 366.144531 C 324.832031 366.144531 333.726562 357.25 333.726562 346.308594 L 333.726562 313.757812 C 333.726562 311.621094 331.996094 309.890625 329.867188 309.890625 "/>
</g>
</g>
</svg>
