<?xml version="1.0" encoding="UTF-8"?>
<svg xmlns="http://www.w3.org/2000/svg" xmlns:xlink="http://www.w3.org/1999/xlink" width="375pt" height="374.999991pt" viewBox="0 0 375 374.999991" version="1.2">
<g id="surface1">
<path style=" stroke:none;fill-rule:nonzero;fill:rgb(95.289612%,91.369629%,82.348633%);fill-opacity:1;" d="M 62.542969 364.734375 C 61.316406 364.734375 60.074219 364.425781 58.953125 363.796875 C 56.660156 362.511719 55.246094 360.085938 55.246094 357.425781 L 55.246094 21.351562 C 55.246094 18.707031 56.675781 16.28125 58.953125 14.980469 C 61.230469 13.710938 64.058594 13.738281 66.292969 15.097656 L 344.339844 183.105469 C 346.511719 184.421875 347.871094 186.804688 347.871094 189.359375 C 347.871094 191.933594 346.511719 194.300781 344.339844 195.613281 L 66.292969 363.679688 C 65.152344 364.367188 63.839844 364.734375 62.542969 364.734375 Z M 69.835938 34.3125 L 69.835938 344.511719 L 326.449219 189.390625 Z M 69.835938 34.3125 "/>
</g>
</svg>
