<?xml version="1.0" encoding="UTF-8"?>
<svg xmlns="http://www.w3.org/2000/svg" xmlns:xlink="http://www.w3.org/1999/xlink" width="375pt" height="374.999991pt" viewBox="0 0 375 374.999991" version="1.2">
<defs>
<clipPath id="clip1">
  <path d="M 102 9.585938 L 155 9.585938 L 155 48 L 102 48 Z M 102 9.585938 "/>
</clipPath>
<clipPath id="clip2">
  <path d="M 11 9.585938 L 98 9.585938 L 98 365.085938 L 11 365.085938 Z M 11 9.585938 "/>
</clipPath>
<clipPath id="clip3">
  <path d="M 159 9.585938 L 212 9.585938 L 212 48 L 159 48 Z M 159 9.585938 "/>
</clipPath>
<clipPath id="clip4">
  <path d="M 216 9.585938 L 260 9.585938 L 260 53 L 216 53 Z M 216 9.585938 "/>
</clipPath>
</defs>
<g id="surface1">
<path style=" stroke:none;fill-rule:nonzero;fill:rgb(95.289612%,91.369629%,82.348633%);fill-opacity:1;" d="M 193.058594 98.460938 L 200.996094 60.371094 L 156.855469 60.371094 L 148.921875 98.460938 L 193.058594 98.460938 "/>
<g clip-path="url(#clip1)" clip-rule="nonzero">
<path style=" stroke:none;fill-rule:nonzero;fill:rgb(95.289612%,91.369629%,82.348633%);fill-opacity:1;" d="M 154.449219 9.585938 L 110.308594 9.585938 L 102.425781 47.675781 L 146.515625 47.675781 L 154.449219 9.585938 "/>
</g>
<path style=" stroke:none;fill-rule:nonzero;fill:rgb(95.289612%,91.369629%,82.348633%);fill-opacity:1;" d="M 81.394531 149.246094 L 125.363281 149.246094 L 133.296875 111.15625 L 89.28125 111.15625 L 81.394531 149.246094 "/>
<g clip-path="url(#clip2)" clip-rule="nonzero">
<path style=" stroke:none;fill-rule:nonzero;fill:rgb(95.289612%,91.369629%,82.348633%);fill-opacity:1;" d="M 97.316406 9.585938 L 84.917969 9.585938 L 11.34375 365.085938 L 23.789062 365.085938 L 67.210938 155.222656 C 67.210938 154.902344 67.113281 154.605469 67.164062 154.304688 L 97.316406 9.585938 "/>
</g>
<g clip-path="url(#clip3)" clip-rule="nonzero">
<path style=" stroke:none;fill-rule:nonzero;fill:rgb(95.289612%,91.369629%,82.348633%);fill-opacity:1;" d="M 211.585938 9.585938 L 167.417969 9.585938 L 159.484375 47.675781 L 203.648438 47.675781 L 211.585938 9.585938 "/>
</g>
<path style=" stroke:none;fill-rule:nonzero;fill:rgb(95.289612%,91.369629%,82.348633%);fill-opacity:1;" d="M 298.871094 123.855469 L 306.808594 85.765625 L 262.667969 85.765625 L 254.730469 123.855469 L 298.871094 123.855469 "/>
<g clip-path="url(#clip4)" clip-rule="nonzero">
<path style=" stroke:none;fill-rule:nonzero;fill:rgb(95.289612%,91.369629%,82.348633%);fill-opacity:1;" d="M 254.535156 52.683594 L 259.742188 24.613281 C 260.433594 20.871094 259.445312 17.050781 257.011719 14.148438 C 254.609375 11.25 251.039062 9.585938 247.269531 9.585938 L 224.554688 9.585938 L 216.617188 47.675781 L 239.457031 47.675781 C 245.085938 47.675781 250.292969 49.535156 254.535156 52.683594 "/>
</g>
<path style=" stroke:none;fill-rule:nonzero;fill:rgb(95.289612%,91.369629%,82.348633%);fill-opacity:1;" d="M 228.71875 98.460938 C 235.09375 98.460938 241.019531 100.84375 245.65625 105.058594 L 251.210938 78.5 L 251.234375 78.5 L 251.78125 76.117188 C 252.277344 74.160156 252.277344 72.226562 251.832031 70.414062 C 251.78125 70.265625 251.757812 70.09375 251.730469 69.945312 C 250.292969 64.289062 245.308594 60.371094 239.457031 60.371094 L 213.988281 60.371094 L 206.054688 98.460938 L 228.71875 98.460938 "/>
<path style=" stroke:none;fill-rule:nonzero;fill:rgb(95.289612%,91.369629%,82.348633%);fill-opacity:1;" d="M 241.640625 124.375 L 241.414062 124.375 C 241.515625 120.78125 240.175781 117.40625 237.769531 114.953125 C 235.390625 112.496094 232.191406 111.15625 228.71875 111.15625 L 203.402344 111.15625 L 195.464844 149.246094 L 219.394531 149.246094 C 225.496094 149.246094 231.175781 151.40625 235.613281 155.074219 L 238.464844 139.503906 L 240.300781 130.675781 L 240.152344 130.625 L 240.300781 130.648438 L 241.640625 124.375 "/>
<path style=" stroke:none;fill-rule:nonzero;fill:rgb(95.289612%,91.369629%,82.348633%);fill-opacity:1;" d="M 301.277344 174.640625 L 345.417969 174.640625 L 353.351562 136.550781 L 309.210938 136.550781 L 301.277344 174.640625 "/>
<path style=" stroke:none;fill-rule:nonzero;fill:rgb(95.289612%,91.369629%,82.348633%);fill-opacity:1;" d="M 252.078125 136.550781 L 250.789062 142.75 L 244.886719 174.640625 L 288.285156 174.640625 L 296.21875 136.550781 L 252.078125 136.550781 "/>
<path style=" stroke:none;fill-rule:nonzero;fill:rgb(95.289612%,91.369629%,82.348633%);fill-opacity:1;" d="M 290.6875 225.425781 L 334.851562 225.425781 L 342.789062 187.335938 L 298.625 187.335938 L 290.6875 225.425781 "/>
<path style=" stroke:none;fill-rule:nonzero;fill:rgb(95.289612%,91.369629%,82.348633%);fill-opacity:1;" d="M 319.777344 85.765625 L 311.839844 123.855469 L 356.003906 123.855469 L 363.941406 85.765625 L 319.777344 85.765625 "/>
<path style=" stroke:none;fill-rule:nonzero;fill:rgb(95.289612%,91.369629%,82.348633%);fill-opacity:1;" d="M 146.265625 111.15625 L 138.332031 149.246094 L 182.496094 149.246094 L 190.429688 111.15625 L 146.265625 111.15625 "/>
<path style=" stroke:none;fill-rule:nonzero;fill:rgb(95.289612%,91.369629%,82.348633%);fill-opacity:1;" d="M 233.554688 225.425781 L 277.71875 225.425781 L 285.65625 187.335938 L 241.515625 187.335938 L 233.554688 225.425781 "/>
<path style=" stroke:none;fill-rule:nonzero;fill:rgb(95.289612%,91.369629%,82.348633%);fill-opacity:1;" d="M 197.449219 200.207031 C 192.117188 200.207031 187.332031 203.554688 185.523438 208.539062 C 185.496094 208.589844 185.472656 208.589844 185.472656 208.636719 L 184.851562 210.945312 C 184.355469 214.539062 185.398438 218.183594 187.753906 220.9375 C 190.183594 223.789062 193.703125 225.425781 197.425781 225.425781 L 220.585938 225.425781 L 226.066406 199.191406 C 223.933594 199.785156 221.726562 200.207031 219.394531 200.207031 L 197.449219 200.207031 "/>
<path style=" stroke:none;fill-rule:nonzero;fill:rgb(95.289612%,91.369629%,82.348633%);fill-opacity:1;" d="M 99.796875 60.371094 L 91.910156 98.460938 L 135.925781 98.460938 L 143.863281 60.371094 L 99.796875 60.371094 "/>
<path style=" stroke:none;fill-rule:nonzero;fill:rgb(95.289612%,91.369629%,82.348633%);fill-opacity:1;" d="M 219.394531 162.117188 L 197.796875 162.117188 L 190.878906 188.378906 C 192.984375 187.808594 195.191406 187.511719 197.449219 187.511719 L 219.394531 187.511719 C 226.386719 187.511719 232.089844 181.808594 232.089844 174.8125 C 232.089844 167.796875 226.386719 162.117188 219.394531 162.117188 "/>
</g>
</svg>
