<?xml version="1.0" encoding="UTF-8"?>
<svg xmlns="http://www.w3.org/2000/svg" xmlns:xlink="http://www.w3.org/1999/xlink" width="375pt" height="374.999991pt" viewBox="0 0 375 374.999991" version="1.2">
<defs>
<clipPath id="clip1">
  <path d="M 109.226562 7.039062 L 265.976562 7.039062 L 265.976562 367.625 L 109.226562 367.625 Z M 109.226562 7.039062 "/>
</clipPath>
</defs>
<g id="surface1">
<path style=" stroke:none;fill-rule:nonzero;fill:rgb(6.269836%,5.879211%,5.099487%);fill-opacity:1;" d="M 187.707031 133.246094 C 201.015625 133.246094 211.832031 144.019531 211.832031 157.285156 C 211.832031 170.546875 201.015625 181.324219 187.707031 181.324219 C 174.394531 181.324219 163.578125 170.546875 163.578125 157.285156 C 163.578125 144.019531 174.394531 133.246094 187.707031 133.246094 Z M 140.703125 184.328125 C 141.808594 186.253906 143.835938 187.332031 145.933594 187.332031 C 146.945312 187.332031 147.984375 187.074219 148.949219 186.535156 L 159.832031 180.265625 C 165.253906 186.769531 172.933594 191.324219 181.675781 192.800781 L 181.675781 205.363281 C 181.675781 208.671875 184.382812 211.371094 187.707031 211.371094 C 191.027344 211.371094 193.738281 208.671875 193.738281 205.363281 L 193.738281 192.800781 C 202.476562 191.324219 210.160156 186.769531 215.578125 180.265625 L 226.460938 186.535156 C 227.429688 187.074219 228.464844 187.332031 229.476562 187.332031 C 231.574219 187.332031 233.601562 186.253906 234.707031 184.328125 C 236.382812 181.464844 235.390625 177.777344 232.496094 176.109375 L 221.585938 169.84375 C 223.046875 165.921875 223.894531 161.695312 223.894531 157.285156 C 223.894531 152.871094 223.046875 148.644531 221.585938 144.722656 L 232.496094 138.457031 C 235.390625 136.789062 236.382812 133.105469 234.707031 130.238281 C 233.058594 127.351562 229.359375 126.367188 226.460938 128.03125 L 215.578125 134.300781 C 210.160156 127.796875 202.476562 123.242188 193.738281 121.765625 L 193.738281 109.207031 C 193.738281 105.894531 191.027344 103.195312 187.707031 103.195312 C 184.382812 103.195312 181.675781 105.894531 181.675781 109.207031 L 181.675781 121.765625 C 172.933594 123.242188 165.253906 127.796875 159.832031 134.300781 L 148.949219 128.03125 C 146.050781 126.367188 142.351562 127.351562 140.703125 130.238281 C 139.03125 133.105469 140.019531 136.789062 142.917969 138.457031 L 153.824219 144.722656 C 152.367188 148.644531 151.515625 152.871094 151.515625 157.285156 C 151.515625 161.695312 152.367188 165.921875 153.824219 169.84375 L 142.917969 176.109375 C 140.019531 177.777344 139.03125 181.464844 140.703125 184.328125 "/>
<g clip-path="url(#clip1)" clip-rule="nonzero">
<path style=" stroke:none;fill-rule:nonzero;fill:rgb(6.269836%,5.879211%,5.099487%);fill-opacity:1;" d="M 253.25 43.097656 L 241.988281 43.097656 L 241.988281 31.078125 L 229.925781 31.078125 L 229.925781 43.097656 L 217.863281 43.097656 L 217.863281 31.078125 L 205.800781 31.078125 L 205.800781 43.097656 L 193.738281 43.097656 L 193.738281 31.078125 L 181.675781 31.078125 L 181.675781 43.097656 L 169.613281 43.097656 L 169.613281 31.078125 L 157.546875 31.078125 L 157.546875 43.097656 L 145.484375 43.097656 L 145.484375 31.078125 L 133.421875 31.078125 L 133.421875 43.097656 L 122.160156 43.097656 L 121.523438 19.058594 L 253.886719 19.058594 Z M 252.308594 79.15625 L 123.101562 79.15625 L 122.46875 55.117188 L 252.945312 55.117188 Z M 248.492188 223.390625 L 126.921875 223.390625 L 123.433594 91.175781 L 251.980469 91.175781 Z M 248.066406 239.917969 L 232.234375 271.46875 L 143.175781 271.46875 L 127.34375 239.917969 L 127.226562 235.410156 L 248.183594 235.410156 Z M 229.925781 313.539062 L 211.832031 313.539062 C 211.832031 303.582031 203.726562 295.507812 193.738281 295.507812 L 181.675781 295.507812 C 171.683594 295.507812 163.578125 303.582031 163.578125 313.539062 L 145.484375 313.539062 L 145.484375 283.488281 L 229.925781 283.488281 Z M 175.644531 313.539062 C 175.644531 310.226562 178.351562 307.527344 181.675781 307.527344 L 193.738281 307.527344 C 197.058594 307.527344 199.769531 310.226562 199.769531 313.539062 Z M 199.769531 325.558594 C 199.769531 328.867188 197.058594 331.566406 193.738281 331.566406 L 181.675781 331.566406 C 178.351562 331.566406 175.644531 328.867188 175.644531 325.558594 Z M 229.925781 355.605469 L 145.484375 355.605469 L 145.484375 325.558594 L 163.578125 325.558594 C 163.578125 335.511719 171.683594 343.585938 181.675781 343.585938 L 193.738281 343.585938 C 203.726562 343.585938 211.832031 335.511719 211.832031 325.558594 L 229.925781 325.558594 Z M 264.417969 8.847656 C 263.265625 7.695312 261.710938 7.039062 260.082031 7.039062 L 115.328125 7.039062 C 113.703125 7.039062 112.148438 7.695312 110.992188 8.847656 C 109.863281 10.019531 109.25 11.59375 109.296875 13.214844 L 111.207031 85.308594 C 111.207031 85.332031 111.207031 85.332031 111.207031 85.332031 L 115.023438 229.566406 L 115.328125 241.585938 C 115.351562 242.453125 115.5625 243.320312 115.964844 244.121094 L 133.421875 278.886719 L 133.421875 361.617188 C 133.421875 364.925781 136.132812 367.625 139.453125 367.625 L 235.957031 367.625 C 239.28125 367.625 241.988281 364.925781 241.988281 361.617188 L 241.988281 278.886719 L 259.445312 244.121094 C 259.847656 243.320312 260.058594 242.453125 260.082031 241.585938 L 260.390625 229.566406 L 264.207031 85.332031 C 264.207031 85.332031 264.207031 85.332031 264.207031 85.308594 L 266.113281 13.214844 C 266.160156 11.59375 265.550781 10.019531 264.417969 8.847656 "/>
</g>
</g>
</svg>
