<?xml version="1.0" encoding="UTF-8"?>
<svg xmlns="http://www.w3.org/2000/svg" xmlns:xlink="http://www.w3.org/1999/xlink" width="375pt" height="374.999991pt" viewBox="0 0 375 374.999991" version="1.2">
<defs>
<clipPath id="clip1">
  <path d="M 133 2.570312 L 161 2.570312 L 161 85 L 133 85 Z M 133 2.570312 "/>
</clipPath>
<clipPath id="clip2">
  <path d="M 142 337 L 153 337 L 153 372.214844 L 142 372.214844 Z M 142 337 "/>
</clipPath>
<clipPath id="clip3">
  <path d="M 224 337 L 235 337 L 235 372.214844 L 224 372.214844 Z M 224 337 "/>
</clipPath>
<clipPath id="clip4">
  <path d="M 215 2.570312 L 244 2.570312 L 244 85 L 215 85 Z M 215 2.570312 "/>
</clipPath>
<clipPath id="clip5">
  <path d="M 37.5 16 L 120 16 L 120 72 L 37.5 72 Z M 37.5 16 "/>
</clipPath>
<clipPath id="clip6">
  <path d="M 256 16 L 339 16 L 339 72 L 256 72 Z M 256 16 "/>
</clipPath>
</defs>
<g id="surface1">
<path style=" stroke:none;fill-rule:nonzero;fill:rgb(6.269836%,5.879211%,5.099487%);fill-opacity:1;" d="M 126.613281 262.691406 C 126.613281 266.460938 129.691406 269.535156 133.464844 269.535156 L 154.023438 269.535156 L 154.023438 255.84375 L 133.464844 255.84375 C 129.691406 255.84375 126.613281 258.921875 126.613281 262.691406 "/>
<path style=" stroke:none;fill-rule:nonzero;fill:rgb(6.269836%,5.879211%,5.099487%);fill-opacity:1;" d="M 140.320312 242.15625 L 154.023438 242.15625 L 154.023438 98.40625 L 140.320312 98.40625 L 140.320312 242.15625 "/>
<g clip-path="url(#clip1)" clip-rule="nonzero">
<path style=" stroke:none;fill-rule:nonzero;fill:rgb(6.269836%,5.879211%,5.099487%);fill-opacity:1;" d="M 147.171875 2.570312 C 139.621094 2.570312 133.464844 8.722656 133.464844 16.261719 L 133.464844 29.953125 L 140.320312 29.953125 C 144.09375 29.953125 147.171875 33.027344 147.171875 36.796875 C 147.171875 40.566406 144.09375 43.640625 140.320312 43.640625 L 133.464844 43.640625 L 133.464844 57.332031 L 140.320312 57.332031 C 144.09375 57.332031 147.171875 60.40625 147.171875 64.179688 C 147.171875 67.949219 144.09375 71.023438 140.320312 71.023438 L 133.464844 71.023438 L 133.464844 84.714844 L 160.875 84.714844 L 160.875 16.261719 C 160.875 8.722656 154.71875 2.570312 147.171875 2.570312 "/>
</g>
<path style=" stroke:none;fill-rule:nonzero;fill:rgb(6.269836%,5.879211%,5.099487%);fill-opacity:1;" d="M 140.320312 296.917969 L 154.023438 296.917969 L 154.023438 283.226562 L 140.320312 283.226562 L 140.320312 296.917969 "/>
<g clip-path="url(#clip2)" clip-rule="nonzero">
<path style=" stroke:none;fill-rule:nonzero;fill:rgb(6.269836%,5.879211%,5.099487%);fill-opacity:1;" d="M 147.171875 372.214844 L 152.335938 337.988281 L 142.003906 337.988281 Z M 147.171875 372.214844 "/>
</g>
<path style=" stroke:none;fill-rule:nonzero;fill:rgb(6.269836%,5.879211%,5.099487%);fill-opacity:1;" d="M 126.613281 317.453125 C 126.613281 321.222656 129.691406 324.296875 133.464844 324.296875 L 154.023438 324.296875 L 154.023438 310.609375 L 133.464844 310.609375 C 129.691406 310.609375 126.613281 313.683594 126.613281 317.453125 "/>
<g clip-path="url(#clip3)" clip-rule="nonzero">
<path style=" stroke:none;fill-rule:nonzero;fill:rgb(6.269836%,5.879211%,5.099487%);fill-opacity:1;" d="M 229.398438 372.214844 L 234.566406 337.988281 L 224.234375 337.988281 Z M 229.398438 372.214844 "/>
</g>
<path style=" stroke:none;fill-rule:nonzero;fill:rgb(6.269836%,5.879211%,5.099487%);fill-opacity:1;" d="M 243.105469 255.84375 L 222.546875 255.84375 L 222.546875 269.535156 L 243.105469 269.535156 C 246.878906 269.535156 249.957031 266.460938 249.957031 262.691406 C 249.957031 258.921875 246.878906 255.84375 243.105469 255.84375 "/>
<path style=" stroke:none;fill-rule:nonzero;fill:rgb(6.269836%,5.879211%,5.099487%);fill-opacity:1;" d="M 243.105469 310.609375 L 222.546875 310.609375 L 222.546875 324.296875 L 243.105469 324.296875 C 246.878906 324.296875 249.957031 321.222656 249.957031 317.453125 C 249.957031 313.683594 246.878906 310.609375 243.105469 310.609375 "/>
<g clip-path="url(#clip4)" clip-rule="nonzero">
<path style=" stroke:none;fill-rule:nonzero;fill:rgb(6.269836%,5.879211%,5.099487%);fill-opacity:1;" d="M 243.105469 71.023438 L 236.25 71.023438 C 232.476562 71.023438 229.398438 67.949219 229.398438 64.179688 C 229.398438 60.40625 232.476562 57.332031 236.25 57.332031 L 243.105469 57.332031 L 243.105469 43.640625 L 236.25 43.640625 C 232.476562 43.640625 229.398438 40.566406 229.398438 36.796875 C 229.398438 33.027344 232.476562 29.953125 236.25 29.953125 L 243.105469 29.953125 L 243.105469 16.261719 C 243.105469 8.722656 236.949219 2.570312 229.398438 2.570312 C 221.851562 2.570312 215.695312 8.722656 215.695312 16.261719 L 215.695312 84.714844 L 243.105469 84.714844 L 243.105469 71.023438 "/>
</g>
<path style=" stroke:none;fill-rule:nonzero;fill:rgb(6.269836%,5.879211%,5.099487%);fill-opacity:1;" d="M 236.25 283.226562 L 222.546875 283.226562 L 222.546875 296.917969 L 236.25 296.917969 L 236.25 283.226562 "/>
<path style=" stroke:none;fill-rule:nonzero;fill:rgb(6.269836%,5.879211%,5.099487%);fill-opacity:1;" d="M 236.25 242.15625 L 236.25 98.40625 L 222.546875 98.40625 L 222.546875 242.15625 L 236.25 242.15625 "/>
<g clip-path="url(#clip5)" clip-rule="nonzero">
<path style=" stroke:none;fill-rule:nonzero;fill:rgb(6.269836%,5.879211%,5.099487%);fill-opacity:1;" d="M 37.53125 43.640625 C 37.53125 58.75 49.820312 71.023438 64.941406 71.023438 C 75.460938 71.023438 85.742188 66.773438 93.183594 59.339844 L 95.1875 57.332031 L 119.761719 57.332031 L 119.761719 43.640625 L 92.351562 43.640625 C 90.53125 43.640625 88.792969 44.363281 87.507812 45.648438 L 83.492188 49.660156 C 78.59375 54.550781 71.847656 57.332031 64.941406 57.332031 C 57.394531 57.332031 51.238281 51.183594 51.238281 43.640625 C 51.238281 36.101562 57.394531 29.953125 64.941406 29.953125 L 119.761719 29.953125 L 119.761719 16.261719 L 64.941406 16.261719 C 49.820312 16.261719 37.53125 28.535156 37.53125 43.640625 "/>
</g>
<g clip-path="url(#clip6)" clip-rule="nonzero">
<path style=" stroke:none;fill-rule:nonzero;fill:rgb(6.269836%,5.879211%,5.099487%);fill-opacity:1;" d="M 311.628906 16.261719 L 256.808594 16.261719 L 256.808594 29.953125 L 311.628906 29.953125 C 319.175781 29.953125 325.332031 36.101562 325.332031 43.640625 C 325.332031 51.183594 319.175781 57.332031 311.628906 57.332031 C 304.722656 57.332031 297.976562 54.550781 293.078125 49.660156 L 289.0625 45.648438 C 287.777344 44.363281 286.039062 43.640625 284.21875 43.640625 L 256.808594 43.640625 L 256.808594 57.332031 L 281.382812 57.332031 L 283.386719 59.339844 C 290.828125 66.773438 301.109375 71.023438 311.628906 71.023438 C 326.75 71.023438 339.039062 58.75 339.039062 43.640625 C 339.039062 28.535156 326.75 16.261719 311.628906 16.261719 "/>
</g>
</g>
</svg>
