<?xml version="1.0" encoding="UTF-8"?>
<svg xmlns="http://www.w3.org/2000/svg" xmlns:xlink="http://www.w3.org/1999/xlink" width="375pt" height="374.999991pt" viewBox="0 0 375 374.999991" version="1.2">
<defs>
<clipPath id="clip1">
  <path d="M 123.03125 80 L 252.03125 80 L 252.03125 366.917969 L 123.03125 366.917969 Z M 123.03125 80 "/>
</clipPath>
<clipPath id="clip2">
  <path d="M 164 8.417969 L 211 8.417969 L 211 31 L 164 31 Z M 164 8.417969 "/>
</clipPath>
</defs>
<g id="surface1">
<g clip-path="url(#clip1)" clip-rule="nonzero">
<path style=" stroke:none;fill-rule:nonzero;fill:rgb(0%,0%,0%);fill-opacity:1;" d="M 217.851562 92.070312 L 220.84375 92.070312 L 220.84375 83.65625 C 220.84375 82.871094 220.523438 82.097656 219.964844 81.539062 C 219.410156 80.980469 218.636719 80.660156 217.851562 80.660156 L 157.207031 80.660156 C 156.421875 80.660156 155.652344 80.980469 155.09375 81.539062 C 154.535156 82.097656 154.21875 82.867188 154.21875 83.65625 L 154.21875 92.070312 L 157.207031 92.070312 L 156.957031 89.089844 C 147.457031 89.890625 138.96875 94.277344 132.867188 100.882812 C 126.761719 107.480469 123.023438 116.34375 123.027344 126.042969 L 123.027344 329.351562 C 123.023438 339.585938 127.179688 348.878906 133.886719 355.585938 C 140.585938 362.292969 149.875 366.449219 160.105469 366.449219 L 214.953125 366.449219 C 225.183594 366.449219 234.476562 362.292969 241.175781 355.585938 C 247.878906 348.878906 252.039062 339.585938 252.035156 329.351562 L 252.035156 126.042969 C 252.039062 116.34375 248.296875 107.480469 242.195312 100.882812 C 236.09375 94.277344 227.601562 89.890625 218.101562 89.089844 L 217.851562 92.070312 L 220.84375 92.070312 L 217.851562 92.070312 L 217.597656 95.054688 C 225.566406 95.726562 232.671875 99.398438 237.800781 104.945312 C 242.925781 110.5 246.050781 117.886719 246.050781 126.042969 L 246.050781 329.351562 C 246.050781 337.953125 242.574219 345.714844 236.945312 351.351562 C 231.308594 356.984375 223.550781 360.460938 214.953125 360.460938 L 160.105469 360.460938 C 151.511719 360.460938 143.753906 356.984375 138.117188 351.351562 C 132.484375 345.714844 129.011719 337.953125 129.011719 329.351562 L 129.011719 126.042969 C 129.011719 117.886719 132.132812 110.5 137.257812 104.945312 C 142.386719 99.398438 149.492188 95.726562 157.460938 95.054688 C 159.007812 94.921875 160.203125 93.625 160.203125 92.070312 L 160.203125 86.652344 L 214.855469 86.652344 L 214.855469 92.070312 C 214.855469 93.625 216.050781 94.921875 217.597656 95.054688 L 217.851562 92.070312 "/>
</g>
<path style=" stroke:none;fill-rule:nonzero;fill:rgb(0%,0%,0%);fill-opacity:1;" d="M 207.542969 102 L 207.542969 99.007812 L 206.734375 99.007812 L 206.734375 102 L 209.726562 102 L 209.726562 83.65625 C 209.726562 82.871094 209.40625 82.097656 208.847656 81.539062 C 208.292969 80.980469 207.519531 80.660156 206.734375 80.660156 L 168.328125 80.660156 C 167.539062 80.660156 166.769531 80.980469 166.214844 81.539062 C 165.65625 82.097656 165.335938 82.867188 165.335938 83.65625 L 165.335938 102 L 168.328125 102 L 168.328125 99.007812 L 167.515625 99.007812 C 158.53125 99.003906 150.390625 102.941406 144.574219 109.207031 C 138.753906 115.476562 135.183594 124.101562 135.183594 133.574219 L 135.183594 321.828125 C 135.183594 331.300781 138.753906 339.917969 144.574219 346.1875 C 150.390625 352.460938 158.53125 356.394531 167.515625 356.390625 L 207.542969 356.390625 C 216.53125 356.394531 224.671875 352.460938 230.484375 346.1875 C 236.308594 339.917969 239.878906 331.300781 239.878906 321.828125 L 239.878906 133.574219 C 239.878906 124.101562 236.308594 115.476562 230.484375 109.207031 C 224.671875 102.941406 216.53125 99.003906 207.542969 99.007812 L 207.542969 104.992188 C 214.765625 104.992188 221.296875 108.121094 226.101562 113.285156 C 230.894531 118.441406 233.894531 125.609375 233.894531 133.574219 L 233.894531 321.828125 C 233.894531 329.785156 230.894531 336.953125 226.101562 342.117188 C 221.296875 347.273438 214.765625 350.40625 207.542969 350.40625 L 167.515625 350.40625 C 160.296875 350.40625 153.765625 347.273438 148.960938 342.117188 C 144.164062 336.953125 141.167969 329.785156 141.167969 321.828125 L 141.167969 133.574219 C 141.167969 125.609375 144.164062 118.441406 148.960938 113.285156 C 153.765625 108.121094 160.296875 104.992188 167.515625 104.992188 L 168.328125 104.992188 C 169.117188 104.992188 169.886719 104.671875 170.441406 104.113281 C 171 103.558594 171.320312 102.789062 171.320312 102 L 171.320312 86.652344 L 203.742188 86.652344 L 203.742188 102 C 203.742188 102.789062 204.0625 103.558594 204.621094 104.113281 C 205.171875 104.671875 205.945312 104.992188 206.734375 104.992188 L 207.542969 104.992188 L 207.542969 102 "/>
<path style=" stroke:none;fill-rule:nonzero;fill:rgb(0%,0%,0%);fill-opacity:1;" d="M 227.121094 68.71875 L 230.109375 68.71875 L 230.109375 51.617188 C 230.109375 44.085938 227.054688 37.242188 222.121094 32.316406 C 217.191406 27.378906 210.347656 24.316406 202.820312 24.316406 L 172.234375 24.316406 C 164.710938 24.316406 157.871094 27.378906 152.941406 32.316406 C 148.011719 37.242188 144.949219 44.085938 144.949219 51.617188 L 144.949219 68.71875 C 144.949219 69.511719 145.269531 70.277344 145.828125 70.835938 C 146.386719 71.394531 147.152344 71.714844 147.941406 71.714844 L 227.121094 71.714844 C 227.90625 71.714844 228.675781 71.394531 229.234375 70.835938 C 229.792969 70.277344 230.109375 69.507812 230.109375 68.71875 L 227.121094 68.71875 L 227.121094 65.726562 L 150.933594 65.726562 L 150.933594 51.617188 C 150.9375 45.722656 153.316406 40.410156 157.171875 36.542969 C 161.039062 32.683594 166.347656 30.304688 172.234375 30.304688 L 202.820312 30.304688 C 208.714844 30.304688 214.023438 32.683594 217.886719 36.542969 C 221.746094 40.410156 224.125 45.722656 224.128906 51.617188 L 224.128906 68.71875 L 227.121094 68.71875 L 227.121094 65.726562 L 227.121094 68.71875 "/>
<g clip-path="url(#clip2)" clip-rule="nonzero">
<path style=" stroke:none;fill-rule:nonzero;fill:rgb(0%,0%,0%);fill-opacity:1;" d="M 207.324219 27.308594 L 210.316406 27.308594 L 210.316406 23.9375 C 210.316406 19.761719 208.617188 15.957031 205.882812 13.222656 C 203.152344 10.488281 199.351562 8.785156 195.175781 8.785156 L 179.882812 8.785156 C 175.714844 8.785156 171.910156 10.488281 169.179688 13.222656 C 166.445312 15.953125 164.742188 19.761719 164.742188 23.9375 L 164.742188 27.308594 C 164.742188 28.097656 165.0625 28.871094 165.621094 29.425781 C 166.179688 29.984375 166.945312 30.304688 167.734375 30.304688 L 207.324219 30.304688 C 208.113281 30.304688 208.882812 29.984375 209.441406 29.425781 C 209.996094 28.871094 210.316406 28.097656 210.316406 27.308594 L 207.324219 27.308594 L 207.324219 24.316406 L 170.726562 24.316406 L 170.726562 23.9375 C 170.730469 21.398438 171.75 19.121094 173.410156 17.457031 C 175.074219 15.792969 177.34375 14.777344 179.882812 14.777344 L 195.175781 14.777344 C 197.714844 14.777344 199.984375 15.792969 201.652344 17.457031 C 203.3125 19.121094 204.332031 21.398438 204.335938 23.9375 L 204.335938 27.308594 L 207.324219 27.308594 L 207.324219 24.316406 L 207.324219 27.308594 "/>
</g>
<path style=" stroke:none;fill-rule:nonzero;fill:rgb(0%,0%,0%);fill-opacity:1;" d="M 147.941406 59.550781 L 147.941406 62.542969 L 165.613281 62.542969 C 166.402344 62.542969 167.167969 62.222656 167.726562 61.664062 C 168.285156 61.105469 168.605469 60.335938 168.605469 59.550781 L 168.605469 51.863281 C 168.605469 51.074219 168.285156 50.304688 167.726562 49.746094 C 167.167969 49.191406 166.402344 48.871094 165.613281 48.871094 L 147.941406 48.871094 C 147.152344 48.871094 146.386719 49.191406 145.828125 49.746094 C 145.269531 50.304688 144.949219 51.074219 144.949219 51.863281 L 144.949219 59.550781 C 144.949219 60.335938 145.269531 61.109375 145.828125 61.667969 C 146.386719 62.222656 147.152344 62.542969 147.941406 62.542969 L 147.941406 59.550781 L 150.933594 59.550781 L 150.933594 54.855469 L 162.617188 54.855469 L 162.617188 56.554688 L 147.941406 56.554688 L 147.941406 59.550781 L 150.933594 59.550781 L 147.941406 59.550781 "/>
<path style=" stroke:none;fill-rule:nonzero;fill:rgb(0%,0%,0%);fill-opacity:1;" d="M 165.613281 58.699219 L 227.121094 58.699219 C 228.769531 58.699219 230.109375 57.359375 230.109375 55.707031 C 230.109375 54.050781 228.769531 52.714844 227.121094 52.714844 L 165.613281 52.714844 C 163.960938 52.714844 162.621094 54.050781 162.621094 55.707031 C 162.621094 57.359375 163.960938 58.699219 165.613281 58.699219 "/>
<path style=" stroke:none;fill-rule:nonzero;fill:rgb(0%,0%,0%);fill-opacity:1;" d="M 206.796875 22.523438 L 206.734375 21.90625 L 206.792969 22.523438 L 206.796875 22.523438 L 206.734375 21.90625 L 206.792969 22.523438 C 206.835938 22.519531 207.765625 22.429688 209.292969 22.429688 C 211.289062 22.429688 214.304688 22.582031 217.644531 23.246094 C 220.148438 23.742188 222.839844 24.527344 225.429688 25.726562 C 229.328125 27.53125 232.972656 30.230469 235.703125 34.371094 C 238.421875 38.519531 240.292969 44.1875 240.300781 52.230469 C 240.304688 57.570312 239.574219 61.523438 238.523438 64.414062 C 237.730469 66.582031 236.769531 68.164062 235.769531 69.34375 C 234.269531 71.109375 232.664062 72.023438 231.222656 72.546875 C 229.789062 73.066406 228.511719 73.15625 227.867188 73.152344 C 227.695312 73.152344 227.570312 73.148438 227.5 73.144531 L 227.4375 73.136719 L 227.425781 73.289062 L 227.441406 73.136719 L 227.4375 73.136719 L 227.425781 73.289062 L 227.441406 73.136719 L 227.238281 75.105469 L 227.464844 73.140625 L 227.441406 73.136719 L 227.238281 75.105469 L 227.464844 73.140625 C 225.824219 72.949219 224.339844 74.121094 224.148438 75.761719 C 223.953125 77.402344 225.128906 78.890625 226.769531 79.085938 C 226.871094 79.097656 227.257812 79.136719 227.867188 79.136719 C 228.894531 79.136719 230.546875 79.023438 232.496094 78.425781 C 233.960938 77.980469 235.589844 77.253906 237.207031 76.105469 C 239.628906 74.386719 241.964844 71.691406 243.617188 67.800781 C 245.273438 63.90625 246.285156 58.847656 246.285156 52.230469 C 246.289062 44.253906 244.601562 37.875 241.796875 32.882812 C 239.703125 29.140625 237 26.207031 234.054688 23.957031 C 229.632812 20.578125 224.699219 18.726562 220.265625 17.691406 C 215.828125 16.660156 211.875 16.449219 209.292969 16.445312 C 207.421875 16.445312 206.277344 16.558594 206.195312 16.566406 C 204.554688 16.734375 203.351562 18.203125 203.519531 19.84375 C 203.683594 21.492188 205.148438 22.6875 206.796875 22.523438 "/>
<path style=" stroke:none;fill-rule:nonzero;fill:rgb(0%,0%,0%);fill-opacity:1;" d="M 140.847656 203.5625 L 139.027344 202.648438 L 140.808594 203.636719 L 140.847656 203.5625 L 139.027344 202.648438 L 140.808594 203.636719 L 140.359375 203.386719 L 140.796875 203.652344 L 140.808594 203.636719 L 140.359375 203.386719 L 140.796875 203.652344 C 140.804688 203.640625 141.042969 203.269531 141.558594 202.925781 C 142.078125 202.585938 142.867188 202.210938 144.34375 202.203125 C 146.019531 202.199219 148.652344 202.75 152.449219 204.839844 C 155.34375 206.429688 157.644531 207.585938 159.652344 208.378906 C 161.65625 209.167969 163.40625 209.621094 165.148438 209.625 C 166.160156 209.628906 167.148438 209.457031 168.050781 209.148438 C 169.40625 208.679688 170.515625 207.957031 171.566406 207.175781 C 172.613281 206.386719 173.632812 205.515625 174.835938 204.554688 C 175.8125 203.769531 177.109375 203.136719 178.628906 202.71875 C 180.144531 202.296875 181.871094 202.082031 183.621094 202.085938 C 185.820312 202.082031 188.058594 202.417969 189.984375 202.988281 C 191.910156 203.558594 193.507812 204.394531 194.414062 205.1875 C 195.953125 206.503906 197.808594 208.386719 199.960938 210.023438 C 201.046875 210.847656 202.214844 211.617188 203.527344 212.207031 C 204.828125 212.796875 206.300781 213.203125 207.894531 213.203125 C 209.394531 213.210938 210.964844 212.824219 212.414062 212.027344 C 213.875 211.230469 215.21875 210.066406 216.488281 208.550781 C 217.632812 207.171875 219.207031 206.039062 221.03125 205.132812 C 223.765625 203.773438 227.039062 202.972656 229.886719 202.558594 C 232.734375 202.136719 235.152344 202.074219 236.210938 202.078125 C 236.40625 202.078125 236.558594 202.078125 236.652344 202.082031 L 236.777344 202.082031 L 236.785156 201.785156 L 236.777344 202.082031 L 236.785156 201.785156 L 236.777344 202.082031 C 238.425781 202.144531 239.816406 200.855469 239.878906 199.207031 C 239.941406 197.554688 238.648438 196.160156 237 196.101562 C 236.964844 196.097656 236.6875 196.089844 236.210938 196.089844 C 234.519531 196.089844 230.3125 196.199219 225.601562 197.273438 C 223.242188 197.8125 220.753906 198.59375 218.375 199.769531 C 216 200.945312 213.722656 202.53125 211.898438 204.710938 C 211 205.789062 210.203125 206.417969 209.5625 206.765625 C 208.910156 207.113281 208.417969 207.214844 207.894531 207.21875 C 207.339844 207.21875 206.71875 207.078125 205.980469 206.746094 C 204.878906 206.257812 203.589844 205.332031 202.289062 204.210938 C 200.984375 203.097656 199.667969 201.816406 198.316406 200.648438 C 196.496094 199.09375 194.214844 198.015625 191.695312 197.253906 C 189.175781 196.503906 186.410156 196.097656 183.621094 196.097656 C 181.398438 196.097656 179.160156 196.355469 177.023438 196.949219 C 174.890625 197.546875 172.851562 198.480469 171.097656 199.878906 C 169.390625 201.253906 168.144531 202.328125 167.234375 202.90625 C 166.785156 203.199219 166.425781 203.375 166.117188 203.480469 C 165.804688 203.585938 165.535156 203.632812 165.148438 203.636719 C 164.5 203.640625 163.460938 203.449219 161.851562 202.8125 C 160.246094 202.179688 158.113281 201.125 155.332031 199.59375 C 150.921875 197.167969 147.328125 196.214844 144.34375 196.210938 C 142.859375 196.210938 141.542969 196.457031 140.417969 196.855469 C 138.734375 197.453125 137.523438 198.382812 136.746094 199.183594 C 135.972656 199.988281 135.605469 200.664062 135.503906 200.871094 C 134.757812 202.347656 135.351562 204.144531 136.828125 204.890625 C 138.304688 205.636719 140.101562 205.039062 140.847656 203.5625 "/>
<path style=" stroke:none;fill-rule:nonzero;fill:rgb(0%,0%,0%);fill-opacity:1;" d="M 227.121094 83.503906 L 227.121094 80.507812 L 150.933594 80.507812 L 150.933594 71.714844 L 224.128906 71.714844 L 224.128906 83.503906 L 227.121094 83.503906 L 227.121094 80.507812 L 227.121094 83.503906 L 230.109375 83.503906 L 230.109375 68.71875 C 230.109375 67.929688 229.792969 67.160156 229.234375 66.601562 C 228.675781 66.046875 227.90625 65.726562 227.121094 65.726562 L 147.941406 65.726562 C 147.152344 65.726562 146.386719 66.046875 145.828125 66.601562 C 145.269531 67.160156 144.949219 67.929688 144.949219 68.71875 L 144.949219 83.503906 C 144.949219 84.289062 145.269531 85.0625 145.828125 85.621094 C 146.386719 86.179688 147.152344 86.496094 147.941406 86.496094 L 227.121094 86.496094 C 227.90625 86.496094 228.675781 86.179688 229.234375 85.621094 C 229.792969 85.0625 230.109375 84.289062 230.109375 83.503906 L 227.121094 83.503906 "/>
</g>
</svg>
