<?xml version="1.0" encoding="UTF-8"?>
<svg xmlns="http://www.w3.org/2000/svg" xmlns:xlink="http://www.w3.org/1999/xlink" width="375pt" height="374.999991pt" viewBox="0 0 375 374.999991" version="1.2">
<defs>
<clipPath id="clip1">
  <path d="M 5.941406 5.941406 L 368.941406 5.941406 L 368.941406 368.941406 L 5.941406 368.941406 Z M 5.941406 5.941406 "/>
</clipPath>
</defs>
<g id="surface1">
<g clip-path="url(#clip1)" clip-rule="nonzero">
<path style=" stroke:none;fill-rule:nonzero;fill:rgb(95.289612%,91.369629%,82.348633%);fill-opacity:1;" d="M 187.4375 5.941406 C 87.359375 5.941406 5.941406 87.363281 5.941406 187.441406 C 5.941406 287.523438 87.359375 368.945312 187.4375 368.945312 C 287.519531 368.945312 368.941406 287.523438 368.941406 187.441406 C 368.941406 87.363281 287.519531 5.941406 187.4375 5.941406 Z M 187.4375 342.703125 C 101.832031 342.703125 32.183594 273.050781 32.183594 187.441406 C 32.183594 101.832031 101.832031 32.183594 187.4375 32.183594 C 273.046875 32.183594 342.699219 101.832031 342.699219 187.441406 C 342.699219 273.050781 273.046875 342.703125 187.4375 342.703125 Z M 187.4375 342.703125 "/>
</g>
<path style=" stroke:none;fill-rule:nonzero;fill:rgb(95.289612%,91.369629%,82.348633%);fill-opacity:1;" d="M 239.613281 232.488281 L 200.5625 210.40625 L 200.5625 102.160156 C 200.5625 94.910156 194.6875 89.039062 187.441406 89.039062 C 180.195312 89.039062 174.320312 94.910156 174.320312 102.160156 L 174.320312 218.054688 C 174.320312 218.207031 174.359375 218.351562 174.363281 218.507812 C 174.382812 219.003906 174.4375 219.5 174.511719 219.988281 C 174.570312 220.371094 174.621094 220.746094 174.710938 221.113281 C 174.816406 221.554688 174.960938 221.972656 175.113281 222.402344 C 175.242188 222.785156 175.375 223.160156 175.542969 223.519531 C 175.726562 223.925781 175.953125 224.304688 176.179688 224.691406 C 176.382812 225.03125 176.574219 225.367188 176.804688 225.691406 C 177.066406 226.054688 177.359375 226.390625 177.65625 226.726562 C 177.929688 227.027344 178.191406 227.328125 178.484375 227.601562 C 178.789062 227.886719 179.125 228.148438 179.464844 228.414062 C 179.828125 228.6875 180.191406 228.957031 180.574219 229.199219 C 180.71875 229.292969 180.832031 229.402344 180.980469 229.484375 L 226.699219 255.335938 C 228.742188 256.488281 230.957031 257.042969 233.144531 257.042969 C 237.722656 257.042969 242.167969 254.640625 244.578125 250.375 C 248.140625 244.054688 245.917969 236.054688 239.613281 232.488281 Z M 239.613281 232.488281 "/>
</g>
</svg>
