<?xml version="1.0" encoding="UTF-8"?>
<svg xmlns="http://www.w3.org/2000/svg" xmlns:xlink="http://www.w3.org/1999/xlink" width="375pt" height="374.999991pt" viewBox="0 0 375 374.999991" version="1.2">
<defs>
<clipPath id="clip1">
  <path d="M 12.632812 52.417969 L 362.132812 52.417969 L 362.132812 322.417969 L 12.632812 322.417969 Z M 12.632812 52.417969 "/>
</clipPath>
</defs>
<g id="surface1">
<g clip-path="url(#clip1)" clip-rule="nonzero">
<path style=" stroke:none;fill-rule:nonzero;fill:rgb(95.289612%,91.369629%,82.348633%);fill-opacity:1;" d="M 187.382812 52.417969 C 91.0625 52.417969 12.683594 130.796875 12.683594 227.121094 C 12.683594 257.855469 20.777344 288.0625 36.074219 314.507812 L 40.664062 322.449219 L 60.328125 322.417969 L 92.09375 322.417969 L 92.09375 290.652344 L 59.304688 290.652344 C 49.570312 271.039062 44.449219 249.246094 44.449219 227.121094 C 44.449219 148.296875 108.578125 84.179688 187.382812 84.179688 C 266.191406 84.179688 330.320312 148.296875 330.320312 227.121094 C 330.320312 249.246094 325.214844 271.019531 315.464844 290.652344 L 282.675781 290.652344 L 282.675781 322.417969 L 334.105469 322.417969 L 338.695312 314.507812 C 353.992188 288.0625 362.085938 257.855469 362.085938 227.121094 C 362.085938 130.796875 283.707031 52.417969 187.382812 52.417969 Z M 187.382812 100.0625 C 186.863281 100.0625 186.34375 100.089844 185.828125 100.140625 C 185.308594 100.191406 184.796875 100.265625 184.285156 100.367188 C 183.777344 100.46875 183.273438 100.597656 182.773438 100.746094 C 182.277344 100.898438 181.789062 101.074219 181.308594 101.273438 C 180.828125 101.472656 180.355469 101.695312 179.898438 101.9375 C 179.4375 102.183594 178.992188 102.453125 178.5625 102.742188 C 178.128906 103.03125 177.710938 103.339844 177.308594 103.667969 C 176.90625 104 176.523438 104.347656 176.15625 104.714844 C 175.785156 105.082031 175.4375 105.46875 175.109375 105.871094 C 174.777344 106.273438 174.46875 106.691406 174.179688 107.121094 C 173.890625 107.554688 173.625 108 173.378906 108.460938 C 173.132812 108.917969 172.910156 109.386719 172.710938 109.867188 C 172.511719 110.347656 172.335938 110.839844 172.1875 111.335938 C 172.035156 111.832031 171.910156 112.335938 171.808594 112.847656 C 171.707031 113.359375 171.628906 113.871094 171.578125 114.390625 C 171.527344 114.90625 171.503906 115.425781 171.503906 115.945312 C 171.503906 116.464844 171.527344 116.984375 171.578125 117.503906 C 171.628906 118.019531 171.707031 118.535156 171.808594 119.042969 C 171.910156 119.554688 172.035156 120.058594 172.1875 120.554688 C 172.335938 121.054688 172.511719 121.542969 172.710938 122.023438 C 172.910156 122.503906 173.132812 122.972656 173.378906 123.433594 C 173.625 123.890625 173.890625 124.335938 174.179688 124.769531 C 174.46875 125.203125 174.777344 125.621094 175.109375 126.023438 C 175.4375 126.425781 175.785156 126.808594 176.15625 127.175781 C 176.523438 127.542969 176.90625 127.894531 177.308594 128.222656 C 177.710938 128.554688 178.128906 128.863281 178.5625 129.152344 C 178.992188 129.441406 179.4375 129.707031 179.898438 129.953125 C 180.355469 130.199219 180.828125 130.421875 181.308594 130.621094 C 181.789062 130.820312 182.277344 130.992188 182.773438 131.144531 C 183.273438 131.296875 183.777344 131.421875 184.285156 131.523438 C 184.796875 131.625 185.308594 131.699219 185.828125 131.753906 C 186.34375 131.804688 186.863281 131.828125 187.382812 131.828125 C 187.90625 131.828125 188.421875 131.804688 188.941406 131.753906 C 189.457031 131.699219 189.972656 131.625 190.484375 131.523438 C 190.992188 131.421875 191.496094 131.296875 191.996094 131.144531 C 192.492188 130.992188 192.980469 130.820312 193.460938 130.621094 C 193.941406 130.421875 194.414062 130.199219 194.871094 129.953125 C 195.328125 129.707031 195.777344 129.441406 196.207031 129.152344 C 196.640625 128.863281 197.058594 128.554688 197.460938 128.222656 C 197.863281 127.894531 198.246094 127.542969 198.613281 127.175781 C 198.984375 126.808594 199.332031 126.425781 199.660156 126.023438 C 199.992188 125.621094 200.300781 125.203125 200.589844 124.769531 C 200.878906 124.335938 201.144531 123.890625 201.390625 123.433594 C 201.636719 122.972656 201.859375 122.503906 202.058594 122.023438 C 202.257812 121.542969 202.429688 121.054688 202.582031 120.554688 C 202.734375 120.058594 202.859375 119.554688 202.960938 119.042969 C 203.0625 118.535156 203.140625 118.019531 203.191406 117.503906 C 203.242188 116.984375 203.265625 116.464844 203.265625 115.945312 C 203.265625 115.425781 203.242188 114.90625 203.191406 114.390625 C 203.140625 113.871094 203.0625 113.359375 202.960938 112.847656 C 202.859375 112.335938 202.734375 111.832031 202.582031 111.335938 C 202.429688 110.839844 202.257812 110.347656 202.058594 109.867188 C 201.859375 109.386719 201.636719 108.917969 201.390625 108.460938 C 201.144531 108 200.878906 107.554688 200.589844 107.121094 C 200.300781 106.691406 199.992188 106.273438 199.660156 105.871094 C 199.332031 105.46875 198.984375 105.082031 198.613281 104.714844 C 198.246094 104.347656 197.863281 104 197.460938 103.667969 C 197.058594 103.339844 196.640625 103.03125 196.207031 102.742188 C 195.777344 102.453125 195.328125 102.183594 194.871094 101.9375 C 194.414062 101.695312 193.941406 101.472656 193.460938 101.273438 C 192.980469 101.074219 192.492188 100.898438 191.996094 100.746094 C 191.496094 100.597656 190.992188 100.46875 190.484375 100.367188 C 189.972656 100.265625 189.457031 100.191406 188.941406 100.140625 C 188.421875 100.089844 187.90625 100.0625 187.382812 100.0625 Z M 131.796875 115.945312 C 131.277344 115.945312 130.757812 115.972656 130.242188 116.023438 C 129.722656 116.074219 129.210938 116.148438 128.699219 116.25 C 128.1875 116.351562 127.683594 116.480469 127.1875 116.628906 C 126.691406 116.78125 126.199219 116.957031 125.71875 117.15625 C 125.238281 117.355469 124.769531 117.578125 124.3125 117.820312 C 123.851562 118.066406 123.40625 118.332031 122.972656 118.621094 C 122.542969 118.910156 122.125 119.222656 121.722656 119.550781 C 121.320312 119.882812 120.933594 120.230469 120.566406 120.597656 C 120.199219 120.964844 119.851562 121.351562 119.519531 121.753906 C 119.191406 122.15625 118.882812 122.570312 118.59375 123.003906 C 118.304688 123.4375 118.035156 123.882812 117.792969 124.339844 C 117.546875 124.800781 117.324219 125.269531 117.125 125.75 C 116.925781 126.230469 116.75 126.71875 116.601562 127.21875 C 116.449219 127.714844 116.324219 128.21875 116.222656 128.730469 C 116.121094 129.238281 116.042969 129.753906 115.992188 130.273438 C 115.941406 130.789062 115.917969 131.308594 115.917969 131.828125 C 115.917969 132.347656 115.941406 132.867188 115.992188 133.386719 C 116.042969 133.902344 116.121094 134.417969 116.222656 134.925781 C 116.324219 135.4375 116.449219 135.941406 116.601562 136.4375 C 116.75 136.9375 116.925781 137.425781 117.125 137.90625 C 117.324219 138.386719 117.546875 138.855469 117.792969 139.316406 C 118.035156 139.773438 118.304688 140.21875 118.59375 140.652344 C 118.882812 141.085938 119.191406 141.503906 119.519531 141.902344 C 119.851562 142.304688 120.199219 142.691406 120.566406 143.058594 C 120.933594 143.425781 121.320312 143.777344 121.722656 144.105469 C 122.125 144.4375 122.542969 144.746094 122.972656 145.035156 C 123.40625 145.324219 123.851562 145.589844 124.3125 145.835938 C 124.769531 146.082031 125.238281 146.304688 125.71875 146.5 C 126.199219 146.699219 126.691406 146.875 127.1875 147.027344 C 127.683594 147.179688 128.1875 147.304688 128.699219 147.40625 C 129.210938 147.507812 129.722656 147.582031 130.242188 147.632812 C 130.757812 147.683594 131.277344 147.710938 131.796875 147.710938 C 132.316406 147.710938 132.835938 147.683594 133.355469 147.632812 C 133.871094 147.582031 134.386719 147.507812 134.894531 147.40625 C 135.40625 147.304688 135.910156 147.179688 136.40625 147.027344 C 136.90625 146.875 137.394531 146.699219 137.875 146.5 C 138.355469 146.304688 138.824219 146.082031 139.285156 145.835938 C 139.742188 145.589844 140.1875 145.324219 140.621094 145.035156 C 141.054688 144.746094 141.472656 144.4375 141.875 144.105469 C 142.273438 143.777344 142.660156 143.425781 143.027344 143.058594 C 143.394531 142.691406 143.746094 142.304688 144.074219 141.902344 C 144.40625 141.503906 144.714844 141.085938 145.003906 140.652344 C 145.292969 140.21875 145.558594 139.773438 145.804688 139.316406 C 146.050781 138.855469 146.273438 138.386719 146.472656 137.90625 C 146.667969 137.425781 146.84375 136.9375 146.996094 136.4375 C 147.148438 135.941406 147.273438 135.4375 147.375 134.925781 C 147.476562 134.417969 147.550781 133.902344 147.601562 133.386719 C 147.65625 132.867188 147.679688 132.347656 147.679688 131.828125 C 147.679688 131.308594 147.65625 130.789062 147.601562 130.273438 C 147.550781 129.753906 147.476562 129.238281 147.375 128.730469 C 147.273438 128.21875 147.148438 127.714844 146.996094 127.21875 C 146.84375 126.71875 146.667969 126.230469 146.472656 125.75 C 146.273438 125.269531 146.050781 124.800781 145.804688 124.339844 C 145.558594 123.882812 145.292969 123.4375 145.003906 123.003906 C 144.714844 122.570312 144.40625 122.15625 144.074219 121.753906 C 143.746094 121.351562 143.394531 120.964844 143.027344 120.597656 C 142.660156 120.230469 142.273438 119.882812 141.875 119.550781 C 141.472656 119.222656 141.054688 118.910156 140.621094 118.621094 C 140.1875 118.332031 139.742188 118.066406 139.285156 117.820312 C 138.824219 117.578125 138.355469 117.355469 137.875 117.15625 C 137.394531 116.957031 136.90625 116.78125 136.40625 116.628906 C 135.910156 116.480469 135.40625 116.351562 134.894531 116.25 C 134.386719 116.148438 133.871094 116.074219 133.355469 116.023438 C 132.835938 115.972656 132.316406 115.945312 131.796875 115.945312 Z M 241.976562 115.945312 C 241.457031 115.945312 240.9375 115.972656 240.421875 116.023438 C 239.902344 116.074219 239.390625 116.148438 238.878906 116.25 C 238.371094 116.351562 237.867188 116.480469 237.367188 116.628906 C 236.871094 116.78125 236.382812 116.957031 235.902344 117.15625 C 235.421875 117.355469 234.949219 117.578125 234.492188 117.820312 C 234.03125 118.066406 233.585938 118.332031 233.15625 118.621094 C 232.722656 118.910156 232.304688 119.222656 231.902344 119.550781 C 231.5 119.882812 231.117188 120.230469 230.75 120.597656 C 230.378906 120.964844 230.03125 121.351562 229.703125 121.753906 C 229.371094 122.15625 229.0625 122.570312 228.773438 123.003906 C 228.484375 123.4375 228.21875 123.882812 227.972656 124.339844 C 227.726562 124.800781 227.503906 125.269531 227.304688 125.75 C 227.105469 126.230469 226.929688 126.71875 226.78125 127.21875 C 226.628906 127.714844 226.503906 128.21875 226.402344 128.730469 C 226.300781 129.238281 226.222656 129.753906 226.171875 130.273438 C 226.121094 130.789062 226.097656 131.308594 226.097656 131.828125 C 226.097656 132.347656 226.121094 132.867188 226.171875 133.386719 C 226.222656 133.902344 226.300781 134.417969 226.402344 134.925781 C 226.503906 135.4375 226.628906 135.941406 226.78125 136.4375 C 226.929688 136.9375 227.105469 137.425781 227.304688 137.90625 C 227.503906 138.386719 227.726562 138.855469 227.972656 139.316406 C 228.21875 139.773438 228.484375 140.21875 228.773438 140.652344 C 229.0625 141.085938 229.371094 141.503906 229.703125 141.902344 C 230.03125 142.304688 230.378906 142.691406 230.75 143.058594 C 231.117188 143.425781 231.5 143.777344 231.902344 144.105469 C 232.304688 144.4375 232.722656 144.746094 233.15625 145.035156 C 233.585938 145.324219 234.03125 145.589844 234.492188 145.835938 C 234.949219 146.082031 235.421875 146.304688 235.902344 146.5 C 236.382812 146.699219 236.871094 146.875 237.367188 147.027344 C 237.867188 147.179688 238.371094 147.304688 238.878906 147.40625 C 239.390625 147.507812 239.902344 147.582031 240.421875 147.632812 C 240.9375 147.683594 241.457031 147.710938 241.976562 147.710938 C 242.5 147.710938 243.015625 147.683594 243.535156 147.632812 C 244.054688 147.582031 244.566406 147.507812 245.078125 147.40625 C 245.585938 147.304688 246.089844 147.179688 246.589844 147.027344 C 247.085938 146.875 247.574219 146.699219 248.054688 146.5 C 248.535156 146.304688 249.007812 146.082031 249.464844 145.835938 C 249.925781 145.589844 250.371094 145.324219 250.800781 145.035156 C 251.234375 144.746094 251.652344 144.4375 252.054688 144.105469 C 252.457031 143.777344 252.839844 143.425781 253.207031 143.058594 C 253.578125 142.691406 253.925781 142.304688 254.253906 141.902344 C 254.585938 141.503906 254.894531 141.085938 255.183594 140.652344 C 255.472656 140.21875 255.738281 139.773438 255.984375 139.316406 C 256.230469 138.855469 256.453125 138.386719 256.652344 137.90625 C 256.851562 137.425781 257.027344 136.9375 257.175781 136.4375 C 257.328125 135.941406 257.453125 135.4375 257.554688 134.925781 C 257.65625 134.417969 257.734375 133.902344 257.785156 133.386719 C 257.835938 132.867188 257.859375 132.347656 257.859375 131.828125 C 257.859375 131.308594 257.835938 130.789062 257.785156 130.273438 C 257.734375 129.753906 257.65625 129.238281 257.554688 128.730469 C 257.453125 128.21875 257.328125 127.714844 257.175781 127.21875 C 257.027344 126.71875 256.851562 126.230469 256.652344 125.75 C 256.453125 125.269531 256.230469 124.800781 255.984375 124.339844 C 255.738281 123.882812 255.472656 123.4375 255.183594 123.003906 C 254.894531 122.570312 254.585938 122.15625 254.253906 121.753906 C 253.925781 121.351562 253.578125 120.964844 253.207031 120.597656 C 252.839844 120.230469 252.457031 119.882812 252.054688 119.550781 C 251.652344 119.222656 251.234375 118.910156 250.800781 118.621094 C 250.371094 118.332031 249.925781 118.066406 249.464844 117.820312 C 249.007812 117.578125 248.535156 117.355469 248.054688 117.15625 C 247.574219 116.957031 247.085938 116.78125 246.589844 116.628906 C 246.089844 116.480469 245.585938 116.351562 245.078125 116.25 C 244.566406 116.148438 244.054688 116.074219 243.535156 116.023438 C 243.015625 115.972656 242.5 115.945312 241.976562 115.945312 Z M 92.09375 155.652344 C 91.574219 155.652344 91.054688 155.675781 90.535156 155.726562 C 90.019531 155.78125 89.503906 155.855469 88.996094 155.957031 C 88.484375 156.058594 87.980469 156.183594 87.484375 156.335938 C 86.984375 156.488281 86.496094 156.660156 86.015625 156.859375 C 85.535156 157.058594 85.066406 157.28125 84.605469 157.527344 C 84.148438 157.773438 83.703125 158.039062 83.269531 158.328125 C 82.835938 158.617188 82.421875 158.925781 82.019531 159.257812 C 81.617188 159.585938 81.230469 159.9375 80.863281 160.304688 C 80.496094 160.671875 80.144531 161.054688 79.816406 161.457031 C 79.488281 161.859375 79.175781 162.277344 78.886719 162.710938 C 78.597656 163.144531 78.332031 163.589844 78.085938 164.046875 C 77.839844 164.507812 77.621094 164.976562 77.421875 165.457031 C 77.222656 165.9375 77.046875 166.425781 76.894531 166.925781 C 76.746094 167.421875 76.617188 167.925781 76.515625 168.4375 C 76.414062 168.945312 76.339844 169.460938 76.289062 169.976562 C 76.238281 170.496094 76.210938 171.015625 76.210938 171.535156 C 76.210938 172.054688 76.238281 172.574219 76.289062 173.089844 C 76.339844 173.609375 76.414062 174.121094 76.515625 174.632812 C 76.617188 175.144531 76.746094 175.648438 76.894531 176.144531 C 77.046875 176.640625 77.222656 177.132812 77.421875 177.613281 C 77.621094 178.09375 77.839844 178.5625 78.085938 179.019531 C 78.332031 179.480469 78.597656 179.925781 78.886719 180.359375 C 79.175781 180.789062 79.488281 181.207031 79.816406 181.609375 C 80.144531 182.011719 80.496094 182.398438 80.863281 182.765625 C 81.230469 183.132812 81.617188 183.480469 82.019531 183.8125 C 82.417969 184.140625 82.835938 184.449219 83.269531 184.738281 C 83.703125 185.027344 84.148438 185.296875 84.605469 185.542969 C 85.066406 185.785156 85.535156 186.007812 86.015625 186.207031 C 86.496094 186.40625 86.984375 186.582031 87.484375 186.734375 C 87.980469 186.882812 88.484375 187.011719 88.996094 187.113281 C 89.503906 187.214844 90.019531 187.289062 90.535156 187.339844 C 91.054688 187.390625 91.574219 187.417969 92.09375 187.417969 C 92.613281 187.417969 93.132812 187.390625 93.648438 187.339844 C 94.167969 187.289062 94.679688 187.214844 95.191406 187.113281 C 95.703125 187.011719 96.207031 186.882812 96.703125 186.734375 C 97.203125 186.582031 97.691406 186.40625 98.171875 186.207031 C 98.652344 186.007812 99.121094 185.785156 99.578125 185.542969 C 100.039062 185.296875 100.484375 185.027344 100.917969 184.738281 C 101.347656 184.449219 101.765625 184.140625 102.167969 183.8125 C 102.570312 183.480469 102.957031 183.132812 103.324219 182.765625 C 103.691406 182.398438 104.039062 182.011719 104.371094 181.609375 C 104.699219 181.207031 105.007812 180.789062 105.296875 180.359375 C 105.585938 179.925781 105.855469 179.480469 106.101562 179.019531 C 106.34375 178.5625 106.566406 178.09375 106.765625 177.613281 C 106.964844 177.132812 107.140625 176.640625 107.292969 176.144531 C 107.441406 175.648438 107.570312 175.144531 107.667969 174.632812 C 107.769531 174.121094 107.847656 173.609375 107.898438 173.089844 C 107.949219 172.574219 107.976562 172.054688 107.976562 171.535156 C 107.976562 171.015625 107.949219 170.496094 107.898438 169.976562 C 107.847656 169.460938 107.769531 168.945312 107.667969 168.4375 C 107.570312 167.925781 107.441406 167.421875 107.292969 166.925781 C 107.140625 166.425781 106.964844 165.9375 106.765625 165.457031 C 106.566406 164.976562 106.34375 164.507812 106.101562 164.046875 C 105.855469 163.589844 105.585938 163.144531 105.296875 162.710938 C 105.007812 162.277344 104.699219 161.859375 104.371094 161.457031 C 104.039062 161.054688 103.691406 160.671875 103.324219 160.304688 C 102.957031 159.9375 102.570312 159.585938 102.167969 159.257812 C 101.765625 158.925781 101.347656 158.617188 100.917969 158.328125 C 100.484375 158.039062 100.039062 157.773438 99.578125 157.527344 C 99.121094 157.28125 98.652344 157.058594 98.171875 156.859375 C 97.691406 156.660156 97.203125 156.488281 96.703125 156.335938 C 96.207031 156.183594 95.703125 156.058594 95.191406 155.957031 C 94.679688 155.855469 94.167969 155.78125 93.648438 155.726562 C 93.132812 155.675781 92.613281 155.652344 92.09375 155.652344 Z M 291.082031 167.5625 C 291.082031 167.5625 180.675781 196.132812 180.4375 196.195312 L 179.503906 196.414062 L 179.535156 196.472656 C 165.816406 199.96875 155.621094 212.304688 155.621094 227.121094 C 155.621094 244.671875 169.835938 258.886719 187.382812 258.886719 C 195.46875 258.886719 202.777344 255.777344 208.382812 250.789062 Z M 76.210938 211.238281 C 75.691406 211.238281 75.171875 211.265625 74.65625 211.316406 C 74.136719 211.367188 73.625 211.445312 73.113281 211.546875 C 72.601562 211.648438 72.097656 211.773438 71.601562 211.925781 C 71.101562 212.074219 70.613281 212.25 70.132812 212.449219 C 69.652344 212.648438 69.183594 212.871094 68.726562 213.117188 C 68.265625 213.359375 67.820312 213.628906 67.386719 213.917969 C 66.957031 214.207031 66.539062 214.515625 66.136719 214.84375 C 65.734375 215.175781 65.347656 215.523438 64.980469 215.890625 C 64.613281 216.261719 64.265625 216.644531 63.933594 217.046875 C 63.605469 217.449219 63.296875 217.867188 63.007812 218.296875 C 62.71875 218.730469 62.449219 219.175781 62.203125 219.636719 C 61.960938 220.09375 61.738281 220.5625 61.539062 221.042969 C 61.339844 221.523438 61.164062 222.015625 61.011719 222.511719 C 60.863281 223.011719 60.734375 223.515625 60.632812 224.023438 C 60.53125 224.535156 60.457031 225.046875 60.40625 225.566406 C 60.355469 226.082031 60.328125 226.601562 60.328125 227.121094 C 60.328125 227.644531 60.355469 228.160156 60.40625 228.679688 C 60.457031 229.195312 60.53125 229.710938 60.632812 230.222656 C 60.734375 230.730469 60.863281 231.234375 61.011719 231.734375 C 61.164062 232.230469 61.339844 232.71875 61.539062 233.199219 C 61.738281 233.679688 61.960938 234.152344 62.203125 234.609375 C 62.449219 235.066406 62.71875 235.515625 63.007812 235.945312 C 63.296875 236.378906 63.605469 236.796875 63.933594 237.199219 C 64.265625 237.601562 64.613281 237.984375 64.980469 238.351562 C 65.347656 238.722656 65.734375 239.070312 66.136719 239.398438 C 66.539062 239.730469 66.957031 240.039062 67.386719 240.328125 C 67.820312 240.617188 68.265625 240.882812 68.726562 241.128906 C 69.183594 241.375 69.652344 241.597656 70.132812 241.796875 C 70.613281 241.996094 71.101562 242.171875 71.601562 242.320312 C 72.097656 242.472656 72.601562 242.597656 73.113281 242.699219 C 73.625 242.800781 74.136719 242.878906 74.65625 242.929688 C 75.171875 242.980469 75.691406 243.003906 76.210938 243.003906 C 76.730469 243.003906 77.25 242.980469 77.769531 242.929688 C 78.285156 242.878906 78.800781 242.800781 79.308594 242.699219 C 79.820312 242.597656 80.324219 242.472656 80.820312 242.320312 C 81.320312 242.171875 81.808594 241.996094 82.289062 241.796875 C 82.769531 241.597656 83.238281 241.375 83.699219 241.128906 C 84.15625 240.882812 84.601562 240.617188 85.035156 240.328125 C 85.46875 240.039062 85.882812 239.730469 86.285156 239.398438 C 86.6875 239.070312 87.074219 238.722656 87.441406 238.351562 C 87.808594 237.984375 88.15625 237.601562 88.488281 237.199219 C 88.816406 236.796875 89.128906 236.378906 89.417969 235.945312 C 89.707031 235.515625 89.972656 235.066406 90.21875 234.609375 C 90.464844 234.152344 90.683594 233.679688 90.882812 233.199219 C 91.082031 232.71875 91.257812 232.230469 91.410156 231.734375 C 91.558594 231.234375 91.6875 230.730469 91.789062 230.222656 C 91.890625 229.710938 91.964844 229.195312 92.015625 228.679688 C 92.066406 228.160156 92.09375 227.644531 92.09375 227.121094 C 92.09375 226.601562 92.066406 226.082031 92.015625 225.566406 C 91.964844 225.046875 91.890625 224.535156 91.789062 224.023438 C 91.6875 223.515625 91.558594 223.011719 91.410156 222.511719 C 91.257812 222.015625 91.082031 221.523438 90.882812 221.042969 C 90.683594 220.5625 90.464844 220.09375 90.21875 219.636719 C 89.972656 219.175781 89.707031 218.730469 89.417969 218.296875 C 89.128906 217.867188 88.816406 217.449219 88.488281 217.046875 C 88.15625 216.644531 87.808594 216.261719 87.441406 215.890625 C 87.074219 215.523438 86.6875 215.175781 86.285156 214.84375 C 85.882812 214.515625 85.46875 214.207031 85.035156 213.917969 C 84.601562 213.628906 84.15625 213.359375 83.699219 213.117188 C 83.238281 212.871094 82.769531 212.648438 82.289062 212.449219 C 81.808594 212.25 81.320312 212.074219 80.820312 211.925781 C 80.324219 211.773438 79.820312 211.648438 79.308594 211.546875 C 78.800781 211.445312 78.285156 211.367188 77.769531 211.316406 C 77.25 211.265625 76.730469 211.238281 76.210938 211.238281 Z M 298.558594 211.238281 C 298.039062 211.238281 297.519531 211.265625 297 211.316406 C 296.484375 211.367188 295.96875 211.445312 295.460938 211.546875 C 294.949219 211.648438 294.445312 211.773438 293.949219 211.925781 C 293.449219 212.074219 292.960938 212.25 292.480469 212.449219 C 292 212.648438 291.53125 212.871094 291.070312 213.117188 C 290.613281 213.359375 290.167969 213.628906 289.734375 213.917969 C 289.300781 214.207031 288.882812 214.515625 288.480469 214.84375 C 288.082031 215.175781 287.695312 215.523438 287.328125 215.890625 C 286.960938 216.261719 286.609375 216.644531 286.28125 217.046875 C 285.949219 217.449219 285.640625 217.867188 285.351562 218.296875 C 285.0625 218.730469 284.796875 219.175781 284.550781 219.636719 C 284.304688 220.09375 284.082031 220.5625 283.882812 221.042969 C 283.6875 221.523438 283.511719 222.015625 283.359375 222.511719 C 283.207031 223.011719 283.082031 223.515625 282.980469 224.023438 C 282.878906 224.535156 282.804688 225.046875 282.753906 225.566406 C 282.703125 226.082031 282.675781 226.601562 282.675781 227.121094 C 282.675781 227.644531 282.703125 228.160156 282.753906 228.679688 C 282.804688 229.195312 282.878906 229.710938 282.980469 230.222656 C 283.082031 230.730469 283.207031 231.234375 283.359375 231.734375 C 283.511719 232.230469 283.6875 232.71875 283.882812 233.199219 C 284.082031 233.679688 284.304688 234.152344 284.550781 234.609375 C 284.796875 235.066406 285.0625 235.515625 285.351562 235.945312 C 285.640625 236.378906 285.949219 236.796875 286.28125 237.199219 C 286.609375 237.601562 286.960938 237.984375 287.328125 238.351562 C 287.695312 238.722656 288.082031 239.070312 288.480469 239.398438 C 288.882812 239.730469 289.300781 240.039062 289.734375 240.328125 C 290.167969 240.617188 290.613281 240.882812 291.070312 241.128906 C 291.53125 241.375 292 241.597656 292.480469 241.796875 C 292.960938 241.996094 293.449219 242.171875 293.949219 242.320312 C 294.445312 242.472656 294.949219 242.597656 295.460938 242.699219 C 295.96875 242.800781 296.484375 242.878906 297 242.929688 C 297.519531 242.980469 298.039062 243.003906 298.558594 243.003906 C 299.078125 243.003906 299.597656 242.980469 300.113281 242.929688 C 300.632812 242.878906 301.144531 242.800781 301.65625 242.699219 C 302.167969 242.597656 302.671875 242.472656 303.167969 242.320312 C 303.664062 242.171875 304.15625 241.996094 304.636719 241.796875 C 305.117188 241.597656 305.585938 241.375 306.042969 241.128906 C 306.503906 240.882812 306.949219 240.617188 307.382812 240.328125 C 307.8125 240.039062 308.230469 239.730469 308.632812 239.398438 C 309.035156 239.070312 309.421875 238.722656 309.789062 238.351562 C 310.15625 237.984375 310.503906 237.601562 310.835938 237.199219 C 311.164062 236.796875 311.472656 236.378906 311.761719 235.945312 C 312.050781 235.515625 312.320312 235.066406 312.5625 234.609375 C 312.808594 234.152344 313.03125 233.679688 313.230469 233.199219 C 313.429688 232.71875 313.605469 232.230469 313.753906 231.734375 C 313.90625 231.234375 314.03125 230.730469 314.132812 230.222656 C 314.234375 229.710938 314.3125 229.195312 314.363281 228.679688 C 314.414062 228.160156 314.441406 227.644531 314.441406 227.121094 C 314.441406 226.601562 314.414062 226.082031 314.363281 225.566406 C 314.3125 225.046875 314.234375 224.535156 314.132812 224.023438 C 314.03125 223.515625 313.90625 223.011719 313.753906 222.511719 C 313.605469 222.015625 313.429688 221.523438 313.230469 221.042969 C 313.03125 220.5625 312.808594 220.09375 312.5625 219.636719 C 312.320312 219.175781 312.050781 218.730469 311.761719 218.296875 C 311.472656 217.867188 311.164062 217.449219 310.835938 217.046875 C 310.503906 216.644531 310.15625 216.261719 309.789062 215.890625 C 309.421875 215.523438 309.035156 215.175781 308.632812 214.84375 C 308.230469 214.515625 307.8125 214.207031 307.382812 213.917969 C 306.949219 213.628906 306.503906 213.359375 306.042969 213.117188 C 305.585938 212.871094 305.117188 212.648438 304.636719 212.449219 C 304.15625 212.25 303.664062 212.074219 303.167969 211.925781 C 302.671875 211.773438 302.167969 211.648438 301.65625 211.546875 C 301.144531 211.445312 300.632812 211.367188 300.113281 211.316406 C 299.597656 211.265625 299.078125 211.238281 298.558594 211.238281 Z M 139.738281 290.683594 L 139.738281 322.449219 L 235.03125 322.449219 L 235.03125 290.683594 Z M 139.738281 290.683594 "/>
</g>
</g>
</svg>
