<?xml version="1.0" encoding="UTF-8"?>
<svg xmlns="http://www.w3.org/2000/svg" xmlns:xlink="http://www.w3.org/1999/xlink" width="375pt" height="374.999991pt" viewBox="0 0 375 374.999991" version="1.2">
<defs>
<clipPath id="clip1">
  <path d="M 9 30.09375 L 365 30.09375 L 365 345.09375 L 9 345.09375 Z M 9 30.09375 "/>
</clipPath>
</defs>
<g id="surface1">
<g clip-path="url(#clip1)" clip-rule="nonzero">
<path style=" stroke:none;fill-rule:nonzero;fill:rgb(0%,0%,0%);fill-opacity:1;" d="M 361.980469 220.671875 C 359.890625 218.578125 357.277344 217.53125 354.667969 217.53125 L 351.011719 217.53125 L 269.011719 30.09375 L 269.011719 107.058594 L 278.933594 107.058594 L 278.933594 78.785156 L 340.042969 218.054688 L 233.496094 218.054688 C 230.882812 218.054688 227.75 219.101562 226.183594 221.195312 C 224.09375 223.289062 223.570312 225.90625 223.570312 228.003906 L 226.703125 257.84375 C 215.214844 261.511719 202.15625 264.128906 187.011719 264.652344 C 172.386719 264.128906 158.808594 261.511719 147.316406 257.84375 L 150.449219 228.003906 C 150.972656 225.382812 149.929688 222.765625 147.839844 221.195312 C 145.75 219.101562 143.136719 218.054688 140.527344 218.054688 L 33.980469 218.054688 L 95.085938 78.785156 L 95.085938 107.058594 L 105.011719 107.058594 L 105.011719 30.09375 L 23.011719 217.53125 L 19.355469 217.53125 C 16.742188 217.53125 13.609375 218.578125 12.042969 220.671875 C 9.953125 222.765625 9.429688 225.382812 9.429688 227.480469 L 21.445312 336.902344 C 21.964844 341.617188 26.144531 345.28125 31.367188 345.28125 L 129.035156 345.28125 C 134.257812 345.28125 138.4375 341.617188 138.960938 336.902344 L 146.273438 267.269531 C 157.238281 270.410156 169.773438 273.027344 183.355469 273.550781 C 184.398438 273.550781 185.445312 273.550781 186.488281 273.550781 C 187.53125 273.550781 188.578125 273.550781 189.621094 273.550781 C 203.722656 273.027344 215.738281 270.410156 226.703125 267.269531 L 234.015625 336.902344 C 234.539062 341.617188 238.71875 345.28125 243.941406 345.28125 L 341.609375 345.28125 C 346.832031 345.28125 351.011719 341.617188 351.53125 336.902344 L 364.589844 227.480469 C 365.113281 224.859375 364.066406 222.242188 361.980469 220.671875 Z M 361.980469 220.671875 "/>
</g>
</g>
</svg>
