<?xml version="1.0" encoding="UTF-8"?>
<svg xmlns="http://www.w3.org/2000/svg" xmlns:xlink="http://www.w3.org/1999/xlink" width="375pt" height="374.999991pt" viewBox="0 0 375 374.999991" version="1.2">
<defs>
<clipPath id="clip1">
  <path d="M 164.691406 5 L 210.441406 5 L 210.441406 371 L 164.691406 371 Z M 164.691406 5 "/>
</clipPath>
</defs>
<g id="surface1">
<g clip-path="url(#clip1)" clip-rule="nonzero">
<path style=" stroke:none;fill-rule:nonzero;fill:rgb(0%,0%,0%);fill-opacity:1;" d="M 204.09375 5.332031 L 204.09375 5.148438 C 204.074219 5.179688 204.0625 5.210938 204.042969 5.242188 C 204.023438 5.207031 204.011719 5.175781 203.992188 5.148438 L 203.992188 5.332031 C 199.558594 13.996094 198.3125 32.871094 198.019531 46.339844 C 190.699219 43.480469 174.160156 39.839844 164.667969 59.773438 C 164.667969 59.773438 182.953125 42.703125 197.941406 53.132812 C 197.9375 55.777344 197.964844 57.941406 197.992188 59.398438 L 197.992188 364.085938 C 197.992188 367.425781 200.703125 370.125 204.046875 370.125 C 207.390625 370.125 210.109375 367.425781 210.109375 364.085938 L 210.109375 59.398438 C 210.257812 50.769531 210.414062 17.679688 204.09375 5.332031 Z M 204.09375 5.332031 "/>
</g>
</g>
</svg>
