<?xml version="1.0" encoding="UTF-8"?>
<svg xmlns="http://www.w3.org/2000/svg" xmlns:xlink="http://www.w3.org/1999/xlink" width="375pt" height="374.999991pt" viewBox="0 0 375 374.999991" version="1.2">
<defs>
<clipPath id="clip1">
  <path d="M 126 247 L 363.089844 247 L 363.089844 320 L 126 320 Z M 126 247 "/>
</clipPath>
<clipPath id="clip2">
  <path d="M 25 12.089844 L 174 12.089844 L 174 142 L 25 142 Z M 25 12.089844 "/>
</clipPath>
<clipPath id="clip3">
  <path d="M 12.089844 327 L 363.089844 327 L 363.089844 363.089844 L 12.089844 363.089844 Z M 12.089844 327 "/>
</clipPath>
</defs>
<g id="surface1">
<g clip-path="url(#clip1)" clip-rule="nonzero">
<path style=" stroke:none;fill-rule:nonzero;fill:rgb(6.269836%,5.879211%,5.099487%);fill-opacity:1;" d="M 353.132812 271.738281 C 347.21875 263.820312 339.214844 257.875 329.925781 254.503906 L 309.804688 247.1875 C 302.03125 253.359375 297.429688 262.335938 297.429688 271.824219 C 297.546875 284.484375 288.085938 294.773438 275.9375 295.316406 C 238.984375 296.714844 204.375 297.429688 173.050781 297.429688 C 161.046875 297.429688 149.902344 297.316406 139.328125 297.117188 L 126.296875 318.808594 C 140.5 319.152344 156.019531 319.378906 173.050781 319.378906 C 258.589844 319.378906 339.816406 314.207031 363.277344 312.578125 L 363.277344 302.117188 C 363.277344 291.230469 359.675781 280.425781 353.132812 271.738281 "/>
</g>
<path style=" stroke:none;fill-rule:nonzero;fill:rgb(6.269836%,5.879211%,5.099487%);fill-opacity:1;" d="M 85.253906 304.746094 L 70.621094 304.746094 L 70.621094 290.113281 L 85.253906 290.113281 Z M 55.988281 297.429688 L 41.355469 297.429688 L 41.355469 282.796875 L 55.988281 282.796875 Z M 133.726562 210.605469 L 32.78125 237.15625 C 31.410156 266.421875 29.152344 291.171875 27.839844 305.632812 C 27.582031 308.320312 27.382812 310.777344 27.179688 312.949219 C 38.984375 314.265625 66.535156 316.894531 109.519531 318.351562 L 156.847656 239.5 L 149.589844 230.410156 L 125.667969 245.128906 L 118.007812 232.667969 L 140.355469 218.894531 L 133.726562 210.605469 "/>
<path style=" stroke:none;fill-rule:nonzero;fill:rgb(6.269836%,5.879211%,5.099487%);fill-opacity:1;" d="M 171.453125 234.328125 C 173.367188 236.726562 173.59375 240.042969 171.996094 242.671875 L 148.042969 282.625 C 156.019531 282.710938 164.277344 282.796875 173.050781 282.796875 C 204.203125 282.796875 238.613281 282.082031 275.339844 280.683594 C 279.625 280.484375 282.855469 276.769531 282.796875 272.023438 C 282.796875 260.707031 287.085938 250.046875 294.515625 241.644531 L 285.085938 238.214844 L 250.046875 259.761719 L 242.386719 247.300781 L 267.535156 231.8125 L 237.984375 221.066406 L 198.832031 245.128906 L 191.171875 232.667969 L 220.410156 214.691406 L 191.941406 204.347656 L 162.132812 222.695312 L 171.453125 234.328125 "/>
<path style=" stroke:none;fill-rule:nonzero;fill:rgb(6.269836%,5.879211%,5.099487%);fill-opacity:1;" d="M 34.039062 187.683594 C 34.039062 199.375 33.8125 210.835938 33.410156 221.867188 L 134.613281 195.230469 C 137.414062 194.488281 140.355469 195.488281 142.1875 197.746094 L 152.933594 211.175781 L 180.28125 194.316406 L 177.597656 159.363281 L 152.875 165.507812 L 149.332031 151.332031 L 176.480469 144.558594 L 174.480469 118.808594 L 32.667969 156.589844 C 33.527344 167.050781 34.039062 177.511719 34.039062 187.683594 "/>
<g clip-path="url(#clip2)" clip-rule="nonzero">
<path style=" stroke:none;fill-rule:nonzero;fill:rgb(6.269836%,5.879211%,5.099487%);fill-opacity:1;" d="M 123.808594 77.679688 L 25.953125 104.859375 C 27.953125 116.519531 29.78125 129.039062 31.210938 141.816406 L 173.339844 103.976562 L 171.539062 80.398438 L 152.875 85.027344 L 149.332031 70.851562 L 170.394531 65.59375 L 168.621094 42.644531 L 145.558594 48.445312 L 142.015625 34.269531 L 167.480469 27.867188 L 166.277344 12.148438 C 151.53125 12.378906 137.585938 13.40625 124.523438 14.949219 L 129.125 70.023438 C 129.410156 73.507812 127.183594 76.738281 123.808594 77.679688 "/>
</g>
<path style=" stroke:none;fill-rule:nonzero;fill:rgb(6.269836%,5.879211%,5.099487%);fill-opacity:1;" d="M 114.035156 65.191406 L 110.003906 16.921875 C 60.21875 24.609375 25.722656 39.328125 13.347656 45.242188 C 15.464844 53.53125 19.4375 69.992188 23.351562 90.398438 L 114.035156 65.191406 "/>
<g clip-path="url(#clip3)" clip-rule="nonzero">
<path style=" stroke:none;fill-rule:nonzero;fill:rgb(6.269836%,5.879211%,5.099487%);fill-opacity:1;" d="M 23.636719 327.296875 L 12.089844 350.359375 L 12.089844 363.277344 L 31.011719 363.277344 L 43.5 350.789062 C 44.871094 349.417969 46.730469 348.644531 48.671875 348.644531 L 77.9375 348.644531 C 79.882812 348.644531 81.738281 349.417969 83.113281 350.789062 L 95.601562 363.277344 L 118.808594 363.277344 L 131.296875 350.789062 C 132.667969 349.417969 134.527344 348.644531 136.46875 348.644531 L 187.683594 348.644531 C 189.628906 348.644531 191.484375 349.417969 192.859375 350.789062 L 205.347656 363.277344 L 235.871094 363.277344 L 248.359375 350.789062 C 249.730469 349.417969 251.589844 348.644531 253.53125 348.644531 L 290.113281 348.644531 C 292.058594 348.644531 293.914062 349.417969 295.289062 350.789062 L 307.777344 363.277344 L 338.300781 363.277344 L 363.277344 338.300781 L 363.277344 327.238281 C 338.328125 328.953125 257.761719 334.011719 173.050781 334.011719 C 88.484375 334.011719 39.128906 329.125 23.636719 327.296875 "/>
</g>
</g>
</svg>
